<svg width="64" height="64" viewBox="0 0 64 64" fill="none" xmlns="http://www.w3.org/2000/svg">
<g clip-path="url(#clip0)">
<path d="M63.0606 17.0333C61.3686 17.0333 59.9921 15.6569 59.9921 13.9648C59.9921 13.4459 59.5716 13.0254 59.0527 13.0254C58.5338 13.0254 58.1133 13.4459 58.1133 13.9648C58.1133 15.6568 56.737 17.0333 55.0448 17.0333C54.526 17.0333 54.1055 17.4538 54.1055 17.9726C54.1055 18.4915 54.526 18.912 55.0448 18.912C56.7368 18.912 58.1133 20.2885 58.1133 21.9805C58.1133 22.4994 58.5338 22.9199 59.0527 22.9199C59.5716 22.9199 59.9921 22.4994 59.9921 21.9805C59.9921 20.2885 61.3685 18.912 63.0606 18.912C63.5795 18.912 64 18.4915 64 17.9726C64 17.4538 63.5795 17.0333 63.0606 17.0333ZM59.0528 19.0831C58.7438 18.657 58.3683 18.2816 57.9423 17.9726C58.3685 17.6636 58.744 17.2881 59.0528 16.8621C59.3618 17.2883 59.7373 17.6636 60.1633 17.9726C59.7372 18.2816 59.3618 18.6571 59.0528 19.0831Z" fill="#183172"/>
<path d="M8.95415 17.0333C7.26227 17.0333 5.88565 15.6569 5.88565 13.9648C5.88565 13.4459 5.46502 13.0254 4.94627 13.0254C4.42752 13.0254 4.0069 13.4459 4.0069 13.9648C4.0069 15.6568 2.63027 17.0333 0.938398 17.0333C0.419648 17.0333 -0.000976562 17.4538 -0.000976562 17.9726C-0.000976562 18.4915 0.419648 18.912 0.938398 18.912C2.63027 18.912 4.0069 20.2885 4.0069 21.9805C4.0069 22.4994 4.42752 22.9199 4.94627 22.9199C5.46502 22.9199 5.88565 22.4994 5.88565 21.9805C5.88565 20.2885 7.26227 18.912 8.95415 18.912C9.4729 18.912 9.89352 18.4915 9.89352 17.9726C9.89352 17.4538 9.4729 17.0333 8.95415 17.0333ZM4.94627 19.0831C4.63727 18.657 4.2619 18.2816 3.83577 17.9726C4.26202 17.6636 4.6374 17.2881 4.94627 16.8621C5.25527 17.2883 5.63065 17.6636 6.05677 17.9726C5.63077 18.2816 5.25527 18.6571 4.94627 19.0831Z" fill="#183172"/>
<path d="M37.0098 5.00975C34.7653 5.00975 32.9393 3.18388 32.9393 0.93925C32.9394 0.4205 32.5189 0 32 0C31.4813 0 31.0607 0.4205 31.0607 0.939375C31.0607 3.18387 29.2345 5.00987 26.9902 5.00987C26.4714 5.00987 26.0508 5.43038 26.0508 5.94925C26.0508 6.46813 26.4714 6.88863 26.9902 6.88863C29.2345 6.88863 31.0607 8.71462 31.0607 10.9591C31.0607 11.478 31.4813 11.8985 32 11.8985C32.5189 11.8985 32.9394 11.478 32.9394 10.9591C32.9394 8.71462 34.7654 6.88863 37.0099 6.88863C37.5288 6.88863 37.9493 6.46813 37.9493 5.94925C37.9493 5.43038 37.5287 5.00975 37.0098 5.00975ZM32 7.75338C31.5357 7.03038 30.9188 6.4135 30.1957 5.94912C30.9188 5.48475 31.5357 4.86788 32 4.14488C32.4644 4.86788 33.0813 5.48475 33.8043 5.94912C33.0813 6.4135 32.4644 7.03038 32 7.75338Z" fill="#183172"/>
<path d="M51.5569 31.6874L47.9029 21.3344C47.6296 20.5597 46.8938 20.0392 46.0723 20.0392H17.6771C16.8554 20.0392 16.1198 20.5597 15.8464 21.3343L12.1924 31.6874C11.9802 32.2888 12.4414 32.9394 13.0782 32.9394H50.6712C50.9759 32.9394 51.2618 32.7914 51.4378 32.5427C51.6139 32.2938 51.6584 31.9749 51.5569 31.6874ZM14.4058 31.0607L17.6179 21.9596C17.6264 21.9354 17.6513 21.9178 17.6769 21.9178H46.0723C46.0979 21.9178 46.1228 21.9354 46.1314 21.9597L49.3436 31.0607H14.4058Z" fill="#183172"/>
<path d="M49.9101 44.0862C46.5741 44.0862 43.9609 45.8192 43.9609 48.0314C43.9609 50.2437 46.5741 51.9767 49.9101 51.9767C53.2461 51.9767 55.8592 50.2437 55.8592 48.0314C55.8592 45.8192 53.2461 44.0862 49.9101 44.0862ZM49.9101 50.0979C47.5803 50.0979 45.8396 49.0069 45.8396 48.0314C45.8396 47.0559 47.5802 45.9649 49.9101 45.9649C52.2398 45.9649 53.9806 47.0559 53.9806 48.0314C53.9806 49.0069 52.2398 50.0979 49.9101 50.0979Z" fill="#183172"/>
<path d="M13.8395 44.0862C10.5035 44.0862 7.89038 45.8192 7.89038 48.0314C7.89038 50.2437 10.5035 51.9767 13.8395 51.9767C17.1755 51.9767 19.7886 50.2437 19.7886 48.0314C19.7886 45.8192 17.1755 44.0862 13.8395 44.0862ZM13.8395 50.0979C11.5099 50.0979 9.76901 49.0069 9.76901 48.0314C9.76901 47.0559 11.5098 45.9649 13.8395 45.9649C16.1693 45.9649 17.91 47.0559 17.91 48.0314C17.91 49.0069 16.1693 50.0979 13.8395 50.0979Z" fill="#183172"/>
<path d="M61.9336 30.0587H56.9238C56.4928 30.0587 56.1171 30.3521 56.0126 30.7702L55.3527 33.4096L50.7376 20.3338C50.0408 18.3597 48.1661 17.0332 46.0725 17.0332H17.6772C15.5836 17.0332 13.7088 18.3597 13.0121 20.334L8.39708 33.4097L7.73721 30.7702C7.63258 30.352 7.25683 30.0587 6.82596 30.0587H1.81608C1.29733 30.0587 0.876709 30.4792 0.876709 30.9981V35.006C0.876709 35.5248 1.29733 35.9453 1.81608 35.9453H7.00446L3.80208 40.4286C3.19933 41.2725 2.88071 42.267 2.88071 43.3041V55.0451C2.88071 56.6719 3.67033 58.1177 4.88621 59.0198C4.88583 59.0308 4.88458 59.0417 4.88458 59.0528V62.0587C4.88458 63.1292 5.75546 64 6.82583 64H12.8376C13.9081 64 14.7788 63.1291 14.7788 62.0587V59.9922H48.9706V62.0587C48.9706 63.1292 49.8415 64 50.9118 64H56.9236C57.9941 64 58.8648 63.1291 58.8648 62.0587V59.0528C58.8648 59.0417 58.8636 59.0308 58.8632 59.0198C60.0791 58.1177 60.8687 56.6719 60.8687 55.0451V43.3041C60.8687 42.2668 60.55 41.2723 59.9472 40.4286L56.7448 35.9453H61.9333C62.4522 35.9453 62.8727 35.5248 62.8727 35.006V30.9981C62.8728 30.4791 62.4525 30.0587 61.9336 30.0587ZM2.75546 34.0665V31.9373H6.09246L6.62471 34.0665H2.75546ZM12.9003 62.0587C12.9003 62.0932 12.8723 62.1213 12.8377 62.1213H6.82596C6.79146 62.1213 6.76333 62.0932 6.76333 62.0587V59.9922H7.82796H12.9003V62.0587ZM56.9863 62.0587C56.9863 62.0932 56.9582 62.1213 56.9237 62.1213H50.912C50.8775 62.1213 50.8493 62.0932 50.8493 62.0587V59.9922H55.9217H56.9863V62.0587V62.0587ZM55.9218 58.1134H7.82783C6.46346 58.1134 5.30471 57.2182 4.90696 55.9843H58.8426C58.4448 57.2182 57.2862 58.1134 55.9218 58.1134ZM39.9531 47.9687V50.0978H23.7966V47.9687H39.9531ZM23.9442 46.09C24.342 44.8561 25.5006 43.9608 26.8651 43.9608H36.8847C38.2491 43.9608 39.4078 44.8561 39.8056 46.09H23.9442ZM39.9531 51.9765V54.1056H23.7966V51.9765H39.9531ZM58.4188 41.5205C58.7927 42.0438 58.9903 42.6606 58.9903 43.304V54.1057H41.8318V47.0293C41.8318 44.3015 39.6125 42.0822 36.8847 42.0822H26.8651C24.1372 42.0822 21.918 44.3016 21.918 47.0293V54.1057H4.75933V43.304C4.75933 42.6606 4.95696 42.0438 5.33083 41.5205L9.31321 35.9452H43.8982C44.4171 35.9452 44.8376 35.5247 44.8376 35.0058C44.8376 34.487 44.4171 34.0665 43.8982 34.0665H10.1575L14.7836 20.9591C15.2158 19.7347 16.3786 18.9118 17.6772 18.9118H46.0726C47.3711 18.9118 48.5338 19.7346 48.9662 20.9591L53.5922 34.0665H47.9061C47.3872 34.0665 46.9667 34.487 46.9667 35.0058C46.9667 35.5247 47.3872 35.9452 47.9061 35.9452H54.4365L58.4188 41.5205ZM60.9942 34.0665H57.1248L57.6571 31.9373H60.9942V34.0665Z" fill="#183172"/>
<path d="M16.8454 41.0803H10.8337C10.3149 41.0803 9.89429 41.5008 9.89429 42.0197C9.89429 42.5386 10.3149 42.9591 10.8337 42.9591H16.8454C17.3642 42.9591 17.7848 42.5386 17.7848 42.0197C17.7848 41.5008 17.3642 41.0803 16.8454 41.0803Z" fill="#183172"/>
<path d="M52.916 41.0803H46.9042C46.3853 41.0803 45.9648 41.5008 45.9648 42.0197C45.9648 42.5386 46.3853 42.9591 46.9042 42.9591H52.916C53.4348 42.9591 53.8553 42.5386 53.8553 42.0197C53.8553 41.5008 53.4348 41.0803 52.916 41.0803Z" fill="#183172"/>
<path d="M17 22H46.5L49.5 31H33H14.5L17 22Z" fill="#F2994A"/>
<path d="M31 5L32 4L34 6L32 8L30 6L31 5Z" fill="#F2994A"/>
<path d="M4 17L5 16L7 18L5 20L3 18L4 17Z" fill="#F2994A"/>
<path d="M58 17L59 16L61 18L59 20L57 18L58 17Z" fill="#F2994A"/>
</g>
<defs>
<clipPath id="clip0">
<rect width="64" height="64" fill="white"/>
</clipPath>
</defs>
</svg>
