<svg width="64" height="64" viewBox="0 0 64 64" fill="none" xmlns="http://www.w3.org/2000/svg">
<path d="M59.477 47L62.928 38.372L61.071 37.629L57.323 47H57V35H55V19H51V15H49V19H47V13H45V19H43V15H41V19H37V31H33V36.129C30.643 33.235 27.426 31.127 23.775 30.161L23.321 28.8C24.779 28.397 25.977 27.366 26.576 26H27C29.206 26 31 24.206 31 22V17C32.103 17 33 16.103 33 15V13C33 11.897 32.103 11 31 11H30.826C29.869 5.24 24.943 1 19 1C13.057 1 8.131 5.24 7.174 11H7C5.897 11 5 11.897 5 13V15C5 16.103 5.897 17 7 17V22C7 24.206 8.794 26 11 26H11.424C12.024 27.366 13.221 28.398 14.679 28.8L14.225 30.161C6.41 32.222 1 39.208 1 47.342V48C1 52.264 3.444 55.961 7 57.786V63H37V55H40.101C40.566 57.279 42.585 59 45 59C47.415 59 49.434 57.279 49.899 55H54.918C58.933 55 62.327 52.125 62.987 48.165L63.181 47H59.477ZM47 47V37H55V47H47ZM39 21H53V35H47V31H39V21ZM45 33V47H35V33H45ZM33 39.676V47H32.677L28.928 37.628L27.071 38.371L30.523 47H26.82L27.014 48.165C27.279 49.755 27.99 51.166 29 52.29V61H24V59C25.654 59 27 57.654 27 56C27 54.346 25.654 53 24 53V32.327C27.813 33.539 31.038 36.155 33 39.676ZM21.279 29L21.896 30.852L19 35.197L16.103 30.852L16.721 29H21.279ZM22 39.149L20.238 36.946L22 34.303V39.149ZM16 39.149V34.303L17.762 36.946L16 39.149ZM16 42.35L19 38.6L22 42.35V51.176C21.686 51.065 21.351 51 21 51H19.829C19.028 51 18.274 51.312 17.707 51.879L16.681 52.905L16 52.753V42.35ZM18 54.414L19.121 53.293C19.31 53.104 19.562 53 19.829 53H21C21.551 53 22 53.449 22 54V55H24C24.551 55 25 55.449 25 56C25 56.551 24.551 57 24 57H18V54.414ZM22 59V61H16V59H22ZM27 24V20C28.103 20 29 20.897 29 22C29 23.103 28.103 24 27 24ZM29 18.556C28.409 18.212 27.732 18 27 18V17H29V18.556ZM28.796 11H22V3.458C25.435 4.523 28.07 7.372 28.796 11ZM20 3.05V11H18V3.05C18.329 3.018 18.662 3 19 3C19.338 3 19.671 3.018 20 3.05ZM16 3.458V11H9.204C9.93 7.372 12.565 4.523 16 3.458V3.458ZM6.999 13H7H31V15H7L6.999 13ZM11 17V18C10.268 18 9.591 18.212 9 18.556V17H11ZM9 22C9 20.897 9.897 20 11 20V24C9.897 24 9 23.103 9 22ZM13 24V17H25V24C25 25.654 23.654 27 22 27H16C14.346 27 13 25.654 13 24ZM3 48V47.342C3 40.382 7.464 34.374 14 32.313V52.31L12.915 52.069C10.61 51.556 9 49.549 9 47.187V43H7V47.187C7 50.493 9.254 53.303 12.481 54.02L16 54.802V57H12C7.038 57 3 52.962 3 48V48ZM9 58.574C9.955 58.845 10.959 59 12 59H14V61H9V58.574ZM31 61V53.914C32.183 54.594 33.55 54.982 35 54.997V61H31ZM45 57C43.346 57 42 55.654 42 54C42 53.449 42.449 53 43 53H47C47.551 53 48 53.449 48 54C48 55.654 46.654 57 45 57ZM54.917 53H49.815C49.401 51.839 48.301 51 46.999 51H42.999C41.697 51 40.597 51.839 40.183 53H35.081C32.457 53 30.185 51.375 29.296 49H60.7C59.813 51.375 57.542 53 54.917 53V53Z" fill="#183172"/>
<path d="M49 23H51V25H49V23Z" fill="#183172"/>
<path d="M45 23H47V25H45V23Z" fill="#183172"/>
<path d="M41 23H43V25H41V23Z" fill="#183172"/>
<path d="M49 27H51V29H49V27Z" fill="#183172"/>
<path d="M41 27H43V29H41V27Z" fill="#183172"/>
<path d="M45 27H47V29H45V27Z" fill="#183172"/>
<path d="M49 31H51V33H49V31Z" fill="#183172"/>
<path d="M37 35H39V45H37V35Z" fill="#183172"/>
<path d="M41 35H43V45H41V35Z" fill="#183172"/>
<path d="M49 39H53V41H49V39Z" fill="#183172"/>
<path d="M49 43H53V45H49V43Z" fill="#183172"/>
<path d="M11.5 6L13.5 4L15.9346 3.5L16 7.5V11L15.9346 11.0918L9 11L10 8.5L11.5 6Z" fill="#F2994A"/>
<path d="M22 3.5L25.1536 4.55127L27.1536 7.05127L29.1536 11.0513H22V8.5V3.5Z" fill="#F2994A"/>
<path d="M29 49H36H42.5L41.5 51L40.5 53H34L32.5 52.5L31 51.6349L29 49Z" fill="#F2994A"/>
<path d="M42.5 49H54.9999H61.4999L60.9999 50.5L59.9999 51.6349L58.4999 52.5L56.9999 53H52.9999H50.9999H50L47.5 51H46H43L41 51.6349L41.5 50.5L42.5 49Z" fill="#F2994A"/>
</svg>
