<svg width="64" height="64" viewBox="0 0 64 64" fill="none" xmlns="http://www.w3.org/2000/svg">
<path d="M62.7595 12.862C62.7553 12.862 62.7511 12.862 62.747 12.862H58.5416V11.423C58.5642 10.8534 58.1958 10.3415 57.6484 10.1824C54.7287 9.41732 51.7223 9.03368 48.704 9.04112C43.7418 9.04112 36.9808 10.1576 31.9814 15.2439C27.0192 10.108 20.2086 9.04112 15.2588 9.04112C12.2405 9.03368 9.23404 9.41732 6.3144 10.1824C5.76701 10.3415 5.39857 10.8534 5.42121 11.423V12.8496H1.24055C0.555456 12.8496 0 13.4051 0 14.0902V53.7133C0 54.3984 0.555456 54.9539 1.24055 54.9539C1.45362 54.9533 1.66296 54.8978 1.84842 54.7926C1.97248 54.7306 14.378 47.9448 31.6961 52.3115H31.8821H31.9938C32.0927 52.3235 32.1926 52.3235 32.2915 52.3115C49.6592 47.9076 62.0647 54.681 62.1392 54.7926C62.523 55.0142 62.9959 55.0142 63.3797 54.7926C63.7612 54.5724 63.9974 54.1663 64 53.7257V14.1026C64 13.4175 63.4447 12.862 62.7595 12.862ZM2.4811 51.7409V15.3431H5.44602V46.4561C5.43826 47.1412 5.98736 47.7029 6.67246 47.7106C6.73945 47.7114 6.80644 47.7068 6.87265 47.6967C9.43904 47.3048 12.0301 47.0975 14.6261 47.0764C18.2221 47.0141 21.8031 47.5549 25.2204 48.6767C17.5034 47.7435 9.67583 48.7983 2.4811 51.7409ZM14.6261 44.6077C12.3697 44.6128 10.1159 44.7578 7.8775 45.0419V12.403C10.2928 11.8649 12.7594 11.5903 15.234 11.5843C19.8736 11.5843 26.2749 12.6511 30.716 17.6629L30.7532 48.5651C28.1729 46.8779 23.1363 44.6077 14.6261 44.6077ZM33.2343 17.6629C37.6755 12.7007 44.0768 11.5843 48.7164 11.5843C51.1909 11.5915 53.6574 11.866 56.0729 12.403V45.0419C53.847 44.7552 51.6057 44.606 49.3615 44.5953C40.901 44.5953 35.8519 46.8655 33.2343 48.5527V17.6629V17.6629ZM61.5065 51.7409C54.2964 48.7902 46.4509 47.7353 38.7176 48.6767C42.151 47.5509 45.749 47.0099 49.3615 47.0764C51.9738 47.091 54.5816 47.2941 57.1646 47.6843C57.8419 47.7871 58.4744 47.3213 58.5772 46.6439C58.5873 46.5777 58.592 46.5107 58.5912 46.4437V15.3431H61.5561L61.5065 51.7409Z" fill="#183172"/>
<path d="M8.00024 11.9359L14.0002 10.9359L19.1859 11.9359L26 13.5L30.5 17V48.5L19.1859 45H7.5L8.00024 11.9359Z" fill="#F2994A"/>
<path d="M33.3144 17L37.5 14L43 11.9359L48.5 11.5L54 11.9359H55.8141H56.5V28.5L55.8141 45H45.5L33.3144 48.5V17Z" fill="#F2994A"/>
</svg>
