<svg width="65" height="64" viewBox="0 0 65 64" fill="none" xmlns="http://www.w3.org/2000/svg">
<path d="M64.997 52.0079C64.9963 51.9985 64.9964 51.9893 64.9956 51.9799C64.9921 51.9428 64.9867 51.9064 64.9789 51.8708C64.9782 51.8673 64.977 51.8638 64.9761 51.8603C64.9686 51.8275 64.9594 51.7955 64.9485 51.7643C64.9455 51.7559 64.9424 51.7478 64.9392 51.7395C64.9285 51.7111 64.9165 51.6835 64.9031 51.6566C64.9008 51.6519 64.8993 51.647 64.8969 51.6423L59.8046 41.7525V9.21502C59.8046 8.21427 58.9777 7.40015 57.9613 7.40015H7.03841C6.02202 7.40015 5.19518 8.21427 5.19518 9.21502V41.7523L0.102959 51.6421C0.100547 51.6469 0.0990234 51.6518 0.0967383 51.6565C0.0834082 51.6834 0.0714746 51.711 0.0606836 51.7393C0.0575098 51.7475 0.0543359 51.7558 0.051416 51.7641C0.040625 51.7955 0.0312305 51.8276 0.0237402 51.8604C0.0229785 51.8638 0.0218359 51.8671 0.0210742 51.8705C0.0133301 51.9063 0.00787109 51.9426 0.00444336 51.9798C0.00355469 51.989 0.00355469 51.9984 0.00304688 52.0076C0.00177734 52.0271 0 52.0464 0 52.0661V54.4444C0 55.633 0.981982 56.5999 2.18918 56.5999H62.8108C64.018 56.5999 65 55.633 65 54.4444V52.0661C65 52.0464 64.9982 52.0271 64.997 52.0079ZM7.0996 9.2754H57.9004V41.039H7.0996V9.2754ZM6.7322 42.9139H58.2677L62.4975 51.1285H41.5782L40.5281 47.3799C40.3143 46.6168 39.6037 46.0838 38.7997 46.0838H26.2001C25.3961 46.0838 24.6853 46.6168 24.4716 47.3798L23.4216 51.1285H2.50237L6.7322 42.9139ZM39.6028 51.1286H25.3972L26.285 47.9589H38.715L39.6028 51.1286ZM63.0957 54.4443C63.0957 54.5989 62.9679 54.7248 62.8108 54.7248H2.18918C2.03214 54.7248 1.9043 54.5989 1.9043 54.4443V53.0035H63.0957V54.4443Z" fill="#183172"/>
<path d="M54.917 26.7195C54.391 26.7195 53.9649 27.1391 53.9649 27.657V37.1639H11.0352V27.657C11.0352 27.1391 10.609 26.7195 10.083 26.7195C9.55704 26.7195 9.13086 27.1391 9.13086 27.657V37.5687C9.13086 38.3794 9.80054 39.0389 10.624 39.0389H54.3762C55.1995 39.0389 55.8693 38.3795 55.8693 37.5687V27.657C55.8692 27.1394 55.443 26.7195 54.917 26.7195Z" fill="#183172"/>
<path d="M54.3761 11.2754H10.624C9.80066 11.2754 9.13086 11.9348 9.13086 12.7455V22.6573C9.13086 23.1751 9.55704 23.5948 10.083 23.5948C10.609 23.5948 11.0352 23.1751 11.0352 22.6573V13.1504H53.9649V22.6573C53.9649 23.1751 54.391 23.5948 54.917 23.5948C55.443 23.5948 55.8692 23.1751 55.8692 22.6573V12.7455C55.8692 11.9346 55.1995 11.2754 54.3761 11.2754Z" fill="#183172"/>
<path d="M12 12.5L36.2917 26.42L56 37H12V12.5Z" fill="#F2994A"/>
<path d="M23 45H42V51H23V45Z" fill="#F2994A"/>
<path d="M23 45H42V51H23V45Z" fill="#F2994A"/>
</svg>
