<svg width="64" height="64" viewBox="0 0 64 64" fill="none" xmlns="http://www.w3.org/2000/svg">
<path d="M58.5395 17.525C59.0572 17.525 59.4769 17.1054 59.4769 16.5876V6.11053C59.4769 2.74117 56.7356 0 53.3664 0H10.6335C7.26424 0 4.52307 2.74117 4.52307 6.11053V57.8893C4.52307 61.2587 7.26424 64 10.6336 64H53.3665C56.7358 64 59.477 61.2587 59.477 57.8893V20.5826C59.477 20.0647 59.0573 19.6451 58.5396 19.6451C58.0219 19.6451 57.6022 20.0647 57.6022 20.5826V47.7257H49.2648C48.7471 47.7257 48.3274 48.1453 48.3274 48.6632C48.3274 49.181 48.7471 49.6006 49.2648 49.6006H57.6022V57.8465H6.39793V49.6006H14.7353C15.253 49.6006 15.6727 49.181 15.6727 48.6632C15.6727 48.1453 15.253 47.7257 14.7353 47.7257H6.39793V13.7126H11.0496C11.5673 13.7126 11.987 13.293 11.987 12.7752C11.987 12.2573 11.5673 11.8377 11.0496 11.8377H6.39793V6.11053C6.39793 3.77496 8.29803 1.87486 10.6335 1.87486H53.3664C55.7019 1.87486 57.602 3.77496 57.602 6.11053V11.8377H15.0445C14.5268 11.8377 14.1071 12.2573 14.1071 12.7752C14.1071 13.293 14.5268 13.7126 15.0445 13.7126H57.6019V16.5876C57.602 17.1054 58.0216 17.525 58.5395 17.525V17.525ZM53.3664 62.1251H10.6335C8.95373 62.1251 7.49922 61.1422 6.8149 59.7213H57.1849C56.5006 61.1422 55.0461 62.1251 53.3664 62.1251Z" fill="#183172"/>
<path d="M35.1288 6.94822C35.1288 5.18848 33.6972 3.75684 31.9375 3.75684C30.1777 3.75684 28.7461 5.18848 28.7461 6.94822C28.7461 8.70796 30.1777 10.1396 31.9375 10.1396C33.6972 10.1396 35.1288 8.70796 35.1288 6.94822ZM30.6208 6.94822C30.6208 6.22227 31.2114 5.63169 31.9373 5.63169C32.6633 5.63169 33.2539 6.2224 33.2539 6.94822C33.2539 7.67404 32.6633 8.26474 31.9373 8.26474C31.2114 8.26474 30.6208 7.67404 30.6208 6.94822Z" fill="#183172"/>
<path d="M26.4185 6.94822C26.4185 5.18848 24.9869 3.75684 23.2271 3.75684C21.4674 3.75684 20.0358 5.18848 20.0358 6.94822C20.0358 8.70796 21.4674 10.1396 23.2271 10.1396C24.9869 10.1396 26.4185 8.70796 26.4185 6.94822ZM21.9105 6.94822C21.9105 6.22227 22.5011 5.63169 23.227 5.63169C23.953 5.63169 24.5435 6.2224 24.5435 6.94822C24.5435 7.67404 23.953 8.26474 23.227 8.26474C22.5011 8.26474 21.9105 7.67404 21.9105 6.94822Z" fill="#183172"/>
<path d="M17.7081 6.94822C17.7081 5.18848 16.2764 3.75684 14.5167 3.75684C12.757 3.75684 11.3252 5.18848 11.3252 6.94822C11.3252 8.70796 12.7568 10.1396 14.5166 10.1396C16.2763 10.1396 17.7081 8.70796 17.7081 6.94822ZM13.2001 6.94822C13.2001 6.22227 13.7906 5.63169 14.5166 5.63169C15.2425 5.63169 15.8331 6.2224 15.8331 6.94822C15.8331 7.67404 15.2425 8.26474 14.5166 8.26474C13.7906 8.26474 13.2001 7.67404 13.2001 6.94822Z" fill="#183172"/>
<path d="M43.8391 6.94822C43.8391 5.18848 42.4074 3.75684 40.6477 3.75684C38.8879 3.75684 37.4563 5.18848 37.4563 6.94822C37.4563 8.70796 38.8879 10.1396 40.6477 10.1396C42.4074 10.1396 43.8391 8.70796 43.8391 6.94822ZM39.331 6.94822C39.331 6.22227 39.9216 5.63169 40.6476 5.63169C41.3735 5.63169 41.9641 6.2224 41.9641 6.94822C41.9641 7.67404 41.3735 8.26474 40.6476 8.26474C39.9216 8.26474 39.331 7.67404 39.331 6.94822Z" fill="#183172"/>
<path d="M52.5495 6.94822C52.5495 5.18848 51.1179 3.75684 49.3581 3.75684C47.5984 3.75684 46.1667 5.18848 46.1667 6.94822C46.1667 8.70796 47.5984 10.1396 49.3581 10.1396C51.1179 10.1396 52.5495 8.70796 52.5495 6.94822ZM48.0415 6.94822C48.0415 6.22227 48.6321 5.63169 49.358 5.63169C50.084 5.63169 50.6745 6.2224 50.6745 6.94822C50.6745 7.67404 50.084 8.26474 49.358 8.26474C48.6321 8.26474 48.0415 7.67404 48.0415 6.94822Z" fill="#183172"/>
<path d="M13.8526 36.4573C13.3382 36.5157 12.9684 36.98 13.0268 37.4943C14.1172 47.1104 22.2471 54.3617 31.9374 54.3617C42.4328 54.3617 50.9714 45.8231 50.9714 35.3276C50.9714 24.8322 42.4328 16.2935 31.9375 16.2935C27.2084 16.2935 22.6743 18.0397 19.1707 21.2103C15.6925 24.3581 13.5051 28.6496 13.0117 33.2948C12.9569 33.8095 13.3299 34.2713 13.8449 34.326C14.3591 34.3805 14.8214 34.0076 14.876 33.4928C15.3209 29.3068 17.2929 25.4385 20.4287 22.6005C23.587 19.7423 27.6742 18.1683 31.9375 18.1683C41.3991 18.1683 49.0967 25.8659 49.0967 35.3275C49.0967 44.7892 41.399 52.4868 31.9375 52.4868C23.2015 52.4868 15.8727 45.9507 14.8898 37.2831C14.8314 36.7686 14.3668 36.3993 13.8526 36.4573V36.4573Z" fill="#183172"/>
<path d="M31.346 20.0545C23.4239 20.3554 16.9753 26.7963 16.6652 34.7178C16.501 38.9121 18.0133 42.8887 20.9236 45.9152C23.8361 48.9438 27.7476 50.6118 31.9376 50.6118C37.5083 50.6118 42.6427 47.5703 45.3372 42.6742C45.5717 42.248 45.6024 41.7444 45.4213 41.2924C45.2402 40.8404 44.87 40.4975 44.4057 40.3511L43.2369 39.983C42.9894 39.905 42.8232 39.6784 42.8232 39.4191V31.2358C42.8232 30.9764 42.9894 30.7498 43.2367 30.6718L44.4057 30.3037C44.8697 30.1576 45.2397 29.8147 45.4208 29.3629C45.6022 28.9104 45.5713 28.4058 45.3361 27.9787C42.5233 22.8699 37.1631 19.8333 31.346 20.0545V20.0545ZM43.5397 42.0441C41.1365 46.1807 36.7199 48.7371 31.9375 48.7371C28.2623 48.7371 24.8307 47.2735 22.2749 44.6157C20.2574 42.5176 19.0064 39.8991 18.6408 37.0772L24.4397 34.6844C26.8901 33.6735 29.6025 33.6402 32.077 34.5912L33.9116 35.2962C36.1498 36.1566 38.6146 36.3318 40.9482 35.8118V39.4192C40.9482 40.5008 41.6415 41.4462 42.6733 41.7713H42.6734L43.5397 42.0441ZM42.6734 28.8839C41.6416 29.2091 40.9483 30.1543 40.9483 31.2359V33.8825C38.8547 34.4406 36.6099 34.3247 34.5843 33.546L32.7497 32.8409C29.8258 31.7174 26.6206 31.7564 23.7247 32.9513L18.5305 35.0946C18.5323 34.9935 18.5346 34.8924 18.5386 34.791C18.8106 27.8421 24.4676 22.1919 31.4173 21.9279C31.5918 21.9213 31.765 21.918 31.9384 21.918C36.7359 21.918 41.1205 24.4421 43.5398 28.611L42.6734 28.8839Z" fill="#183172"/>
<path d="M44.932 32.7175V38.0649C44.932 38.5828 45.3517 39.0024 45.8694 39.0024C46.3871 39.0024 46.8069 38.5828 46.8069 38.0649V32.7175C46.8069 32.1996 46.3871 31.78 45.8694 31.78C45.3517 31.78 44.932 32.1996 44.932 32.7175Z" fill="#183172"/>
<path d="M55.4588 19.8274V17.3428C55.4588 16.3973 54.6895 15.6278 53.7438 15.6278H49.4805C48.5348 15.6278 47.7655 16.3971 47.7655 17.3428V19.8274C47.7655 20.7729 48.5348 21.5424 49.4805 21.5424H53.7438C54.6894 21.5424 55.4588 20.7729 55.4588 19.8274V19.8274ZM53.5839 19.6675H49.6402V17.5028H53.5839V19.6675Z" fill="#183172"/>
<path d="M38 47.5L33.5 49L29.5 48.5L25.5 47.5L22 44.5V44C22 46 16.0001 34.8889 18.0001 37L22 36C22 33.6111 32 32.5001 33.5 35L41 36C41 34.1111 42 34.9999 41 36L41.5 41C48 40 38.5525 47.5 38 47.5Z" fill="#F2994A"/>
</svg>
