<svg width="64" height="64" viewBox="0 0 64 64" fill="none" xmlns="http://www.w3.org/2000/svg">
<path d="M62.9334 16.436H59.7334V15.402C59.7334 15.1277 59.621 14.8647 59.4209 14.6708C59.2209 14.4769 58.9496 14.368 58.6667 14.368H48.3556L44.3734 11.4728C44.1887 11.3385 43.9642 11.266 43.7334 11.266H41.8055L41.9962 11.192C42.1941 11.1153 42.3638 10.9828 42.4833 10.8117C42.6028 10.6405 42.6667 10.4386 42.6667 10.232C42.6662 8.5867 41.9918 7.00897 40.7916 5.8456C39.5915 4.68222 37.9639 4.02843 36.2667 4.02795H28.8V6.09596H36.2667C37.2769 6.09668 38.2542 6.44446 39.0249 7.07754C39.7957 7.71063 40.31 8.58803 40.4766 9.55392L36.0612 11.266H28.9334C28.3366 11.2663 27.7509 11.4218 27.2373 11.7163C26.7237 12.0108 26.3011 12.4335 26.0134 12.9403L21.3334 9.69984V6.09596H26.6667V4.02795H16C15.7171 4.02795 15.4458 4.13689 15.2458 4.33081C15.0457 4.52472 14.9334 4.78772 14.9334 5.06196V10.232C14.9334 10.5062 15.0457 10.7692 15.2458 10.9631C15.4458 11.157 15.7171 11.266 16 11.266H17.0667C16.218 11.266 15.4041 11.5928 14.804 12.1745C14.2038 12.7563 13.8667 13.5453 13.8667 14.368C13.8667 15.1907 14.2038 15.9797 14.804 16.5614C15.4041 17.1432 16.218 17.47 17.0667 17.47H19.2V21.606C19.2 21.8802 19.3124 22.1432 19.5125 22.3371C19.7125 22.531 19.9838 22.64 20.2667 22.64H20.4502C20.2583 23.1645 20.216 23.7295 20.3276 24.2754C20.4391 24.8213 20.7005 25.328 21.0842 25.742C20.5578 26.31 20.2667 27.0465 20.2667 27.81C20.2667 28.5735 20.5578 29.31 21.0842 29.878C20.7848 30.2012 20.5589 30.5819 20.4212 30.9953C20.2835 31.4086 20.2371 31.8455 20.285 32.2774C20.3329 32.7093 20.474 33.1266 20.6991 33.5022C20.9242 33.8778 21.2284 34.2033 21.5918 34.4575C20.9502 35.9019 20.3943 37.3808 19.9268 38.8867L21.97 39.4813C22.4381 37.9721 22.9997 36.4916 23.6516 35.048H28.8C29.4179 35.0484 30.0228 34.8753 30.5413 34.5495C31.0599 34.2238 31.4699 33.7594 31.722 33.2125C31.974 32.6655 32.0572 32.0596 31.9615 31.4678C31.8657 30.8761 31.5952 30.3239 31.1826 29.878C31.7089 29.31 32 28.5735 32 27.81C32 27.0465 31.7089 26.31 31.1826 25.742C31.7089 25.174 32 24.4375 32 23.674C32 22.9105 31.7089 22.174 31.1826 21.606H35.4339L36.2639 24.823C37.0152 27.7354 38.0929 30.5593 39.4779 33.2444C40.8718 35.949 41.938 38.8009 42.6554 41.7432C43.3715 44.6853 43.7333 47.698 43.7334 50.7209V59.864C43.7327 60.4123 43.5077 60.9379 43.1078 61.3256C42.7079 61.7133 42.1656 61.9314 41.6 61.932H22.4C21.8344 61.9314 21.2922 61.7133 20.8923 61.3256C20.4923 60.9379 20.2674 60.4123 20.2667 59.864V50.7209C20.2672 47.9586 20.5693 45.2041 21.168 42.5034L19.0823 42.0686C18.452 44.9122 18.1339 47.8124 18.1334 50.7209V59.864C18.1346 60.9606 18.5846 62.0119 19.3844 62.7873C20.1843 63.5626 21.2688 63.9988 22.4 64H41.6C42.7312 63.9988 43.8157 63.5626 44.6156 62.7873C45.4155 62.0119 45.8654 60.9606 45.8667 59.864V50.7209C45.8665 47.5379 45.4856 44.3656 44.7315 41.2676C43.9762 38.1699 42.8536 35.1672 41.386 32.3197C40.0705 29.7695 39.0469 27.0874 38.3334 24.3214L37.8103 22.2936C39.2579 23.198 40.9445 23.6774 42.6667 23.674V21.606C41.3045 21.6103 39.9725 21.2166 38.8445 20.4763C37.7165 19.7359 36.8447 18.6833 36.343 17.4556L36.1904 17.0858C36.1196 16.9143 36.0027 16.7643 35.8517 16.6514C35.7008 16.5385 35.5215 16.4669 35.3323 16.444L28.784 15.6504C28.4828 15.6117 28.2078 15.4637 28.0148 15.2362C27.8217 15.0087 27.7249 14.7187 27.7438 14.4246C27.7628 14.1306 27.8961 13.8545 28.1169 13.6521C28.3377 13.4496 28.6295 13.336 28.9334 13.334H43.3778L47.36 16.2292C47.5447 16.3634 47.7692 16.436 48 16.436H57.6V30.912H55.4667V19.538H53.3334V30.912H43.7334V32.98H58.6667C58.9496 32.98 59.2209 32.8711 59.4209 32.6771C59.621 32.4832 59.7334 32.2202 59.7334 31.946V30.912H62.9334C63.2163 30.912 63.4876 30.8031 63.6876 30.6091C63.8877 30.4152 64 30.1522 64 29.878V17.47C64 17.1957 63.8877 16.9327 63.6876 16.7388C63.4876 16.5449 63.2163 16.436 62.9334 16.436V16.436ZM25.1974 15.8722C25.3321 15.638 25.4347 15.3878 25.5026 15.1278L25.6987 15.2637C25.8538 15.8764 26.1903 16.4319 26.6667 16.8618V20.4447L26.6339 20.572H24.6584L25.1974 15.8722ZM17.0667 6.09596H19.2V9.19796H17.0667V6.09596ZM16 14.368C16.0004 14.0938 16.1128 13.831 16.3128 13.6372C16.5128 13.4433 16.7839 13.3343 17.0667 13.334H22.4C22.6829 13.334 22.9542 13.4429 23.1543 13.6368C23.3543 13.8307 23.4667 14.0937 23.4667 14.368C23.4667 14.6422 23.3543 14.9052 23.1543 15.0991C22.9542 15.293 22.6829 15.402 22.4 15.402H17.0667C16.7839 15.4017 16.5128 15.2926 16.3128 15.0988C16.1128 14.9049 16.0004 14.6421 16 14.368ZM22.8715 17.4361L22.512 20.572H21.3334V17.47C21.3334 17.47 22.7176 17.4582 22.8715 17.4361ZM28.8 22.64C29.0829 22.64 29.3542 22.7489 29.5543 22.9428C29.7543 23.1367 29.8667 23.3997 29.8667 23.674C29.8667 23.9482 29.7543 24.2112 29.5543 24.4051C29.3542 24.599 29.0829 24.708 28.8 24.708H23.4667C23.1838 24.708 22.9125 24.599 22.7125 24.4051C22.5124 24.2112 22.4 23.9482 22.4 23.674C22.4 23.3997 22.5124 23.1367 22.7125 22.9428C22.9125 22.7489 23.1838 22.64 23.4667 22.64H28.8ZM29.8667 27.81C29.8664 28.0841 29.7539 28.3469 29.5539 28.5408C29.354 28.7346 29.0828 28.8437 28.8 28.844H23.4667C23.1838 28.844 22.9125 28.735 22.7125 28.5411C22.5124 28.3472 22.4 28.0842 22.4 27.81C22.4 27.5358 22.5124 27.2727 22.7125 27.0788C22.9125 26.8849 23.1838 26.776 23.4667 26.776H28.8C29.0828 26.7763 29.354 26.8853 29.5539 27.0792C29.7539 27.273 29.8664 27.5358 29.8667 27.81V27.81ZM28.8 32.98H23.4667C23.1838 32.98 22.9125 32.8711 22.7125 32.6771C22.5124 32.4832 22.4 32.2202 22.4 31.946C22.4 31.6718 22.5124 31.4088 22.7125 31.2148C22.9125 31.0209 23.1838 30.912 23.4667 30.912H28.8C29.0829 30.912 29.3542 31.0209 29.5543 31.2148C29.7543 31.4088 29.8667 31.6718 29.8667 31.946C29.8667 32.2202 29.7543 32.4832 29.5543 32.6771C29.3542 32.8711 29.0829 32.98 28.8 32.98ZM35.041 19.538H28.8V17.7365L34.4464 18.4206C34.6168 18.8064 34.8155 19.1798 35.041 19.538V19.538ZM61.8667 28.844H59.7334V18.504H61.8667V28.844Z" fill="#183172"/>
<path d="M7.46667 9.198H11.7333V11.266H7.46667V9.198Z" fill="#F2994A"/>
<path d="M0 9.198H4.26667V11.266H0V9.198Z" fill="#F2994A"/>
<path d="M7.61487 5.07935L8.56633 3.22848L12.385 5.07314L11.4335 6.924L7.61487 5.07935Z" fill="#F2994A"/>
<path d="M0.934692 1.85095L1.88616 8.99786e-05L5.70482 1.84475L4.75336 3.69561L0.934692 1.85095Z" fill="#F2994A"/>
<path d="M7.61462 15.293L11.4333 13.4483L12.3848 15.2992L8.56609 17.1438L7.61462 15.293Z" fill="#F2994A"/>
<path d="M0.931152 18.5216L4.74982 16.6769L5.70128 18.5278L1.88262 20.3725L0.931152 18.5216Z" fill="#F2994A"/>
<g filter="url(#filter0_d)">
<mask id="path-8-inside-1" fill="white">
<path d="M33.0667 53.66C35.0463 53.6578 36.9441 52.8945 38.3439 51.5376C39.7437 50.1807 40.5311 48.3409 40.5333 46.422V42.286C40.5333 42.0117 40.421 41.7487 40.2209 41.5548C40.0209 41.3609 39.7496 41.252 39.4667 41.252H30.9333C28.9538 41.2541 27.0559 42.0174 25.6561 43.3743C24.2563 44.7312 23.4689 46.571 23.4667 48.49V52.626C23.4667 52.9002 23.5791 53.1632 23.7791 53.3571C23.9791 53.551 24.2504 53.66 24.5333 53.66H33.0667ZM25.6 48.49C25.6016 47.1193 26.164 45.8051 27.1639 44.8359C28.1637 43.8667 29.5193 43.3215 30.9333 43.32H38.4V46.422C38.3984 47.7927 37.836 49.1068 36.8362 50.076C35.8363 51.0452 34.4807 51.5904 33.0667 51.592H25.6V48.49Z"/>
</mask>
<path d="M33.0667 53.66C35.0463 53.6578 36.9441 52.8945 38.3439 51.5376C39.7437 50.1807 40.5311 48.3409 40.5333 46.422V42.286C40.5333 42.0117 40.421 41.7487 40.2209 41.5548C40.0209 41.3609 39.7496 41.252 39.4667 41.252H30.9333C28.9538 41.2541 27.0559 42.0174 25.6561 43.3743C24.2563 44.7312 23.4689 46.571 23.4667 48.49V52.626C23.4667 52.9002 23.5791 53.1632 23.7791 53.3571C23.9791 53.551 24.2504 53.66 24.5333 53.66H33.0667ZM25.6 48.49C25.6016 47.1193 26.164 45.8051 27.1639 44.8359C28.1637 43.8667 29.5193 43.3215 30.9333 43.32H38.4V46.422C38.3984 47.7927 37.836 49.1068 36.8362 50.076C35.8363 51.0452 34.4807 51.5904 33.0667 51.592H25.6V48.49Z" fill="#F2994A"/>
<path d="M33.0667 53.66L33.0667 58.66L33.0722 58.66L33.0667 53.66ZM40.5333 46.422L45.5333 46.4278V46.422H40.5333ZM30.9333 41.252L30.9333 36.252L30.9278 36.252L30.9333 41.252ZM23.4667 48.49L18.4667 48.4841V48.49H23.4667ZM25.6 48.49L20.6 48.4842V48.49H25.6ZM30.9333 43.32L30.9333 38.32L30.9279 38.32L30.9333 43.32ZM38.4 43.32H43.4V38.32H38.4V43.32ZM38.4 46.422L43.4 46.4278V46.422H38.4ZM33.0667 51.592L33.0667 56.592L33.0721 56.592L33.0667 51.592ZM25.6 51.592H20.6V56.592H25.6V51.592ZM33.0722 58.66C36.3267 58.6564 39.4769 57.4029 41.824 55.1277L34.8638 47.9475C34.4114 48.3861 33.7658 48.6592 33.0611 48.66L33.0722 58.66ZM41.824 55.1277C44.1765 52.8473 45.5295 49.7219 45.5333 46.4278L35.5333 46.4161C35.5327 46.96 35.3109 47.5141 34.8638 47.9475L41.824 55.1277ZM45.5333 46.422V42.286H35.5333V46.422H45.5333ZM45.5333 42.286C45.5333 40.6346 44.8552 39.0835 43.7011 37.9647L36.7408 45.1449C35.9868 44.4139 35.5333 43.3889 35.5333 42.286H45.5333ZM43.7011 37.9647C42.5522 36.8511 41.0263 36.252 39.4667 36.252V46.252C38.4728 46.252 37.4895 45.8707 36.7408 45.1449L43.7011 37.9647ZM39.4667 36.252H30.9333V46.252H39.4667V36.252ZM30.9278 36.252C27.6733 36.2556 24.5231 37.509 22.176 39.7843L29.1362 46.9644C29.5886 46.5259 30.2342 46.2527 30.9389 46.252L30.9278 36.252ZM22.176 39.7843C19.8236 42.0646 18.4706 45.1901 18.4667 48.4841L28.4667 48.4958C28.4673 47.9519 28.6891 47.3979 29.1362 46.9644L22.176 39.7843ZM18.4667 48.49V52.626H28.4667V48.49H18.4667ZM18.4667 52.626C18.4667 54.2773 19.1448 55.8284 20.299 56.9472L27.2592 49.767C28.0133 50.498 28.4667 51.5231 28.4667 52.626H18.4667ZM20.299 56.9472C21.4478 58.0608 22.9737 58.66 24.5333 58.66V48.66C25.5272 48.66 26.5105 49.0412 27.2592 49.767L20.299 56.9472ZM24.5333 58.66H33.0667V48.66H24.5333V58.66ZM30.6 48.4958C30.6 48.4945 30.6 48.4898 30.6043 48.4797C30.6087 48.4693 30.6194 48.4499 30.644 48.426L23.6837 41.2458C21.7312 43.1385 20.6032 45.7384 20.6 48.4842L30.6 48.4958ZM30.644 48.426C30.6965 48.3751 30.7997 48.3201 30.9388 48.32L30.9279 38.32C28.239 38.3229 25.631 39.3582 23.6837 41.2458L30.644 48.426ZM30.9333 48.32H38.4V38.32H30.9333V48.32ZM33.4 43.32V46.422H43.4V43.32H33.4ZM33.4 46.4162C33.4 46.4174 33.4001 46.4221 33.3957 46.4322C33.3913 46.4426 33.3806 46.4621 33.356 46.4859L40.3163 53.6661C42.2688 51.7734 43.3968 49.1735 43.4 46.4278L33.4 46.4162ZM33.356 46.4859C33.3036 46.5368 33.2003 46.5918 33.0612 46.592L33.0721 56.592C35.761 56.589 38.369 55.5537 40.3163 53.6661L33.356 46.4859ZM33.0667 46.592H25.6V56.592H33.0667V46.592ZM30.6 51.592V48.49H20.6V51.592H30.6Z" fill="#F2994A" mask="url(#path-8-inside-1)"/>
</g>
<defs>
<filter id="filter0_d" x="19.4667" y="41.252" width="25.0667" height="20.408" filterUnits="userSpaceOnUse" color-interpolation-filters="sRGB">
<feFlood flood-opacity="0" result="BackgroundImageFix"/>
<feColorMatrix in="SourceAlpha" type="matrix" values="0 0 0 0 0 0 0 0 0 0 0 0 0 0 0 0 0 0 127 0"/>
<feOffset dy="4"/>
<feGaussianBlur stdDeviation="2"/>
<feColorMatrix type="matrix" values="0 0 0 0 0 0 0 0 0 0 0 0 0 0 0 0 0 0 0.25 0"/>
<feBlend mode="normal" in2="BackgroundImageFix" result="effect1_dropShadow"/>
<feBlend mode="normal" in="SourceGraphic" in2="effect1_dropShadow" result="shape"/>
</filter>
</defs>
</svg>
