<svg width="649" height="488" viewBox="0 0 649 488" fill="none" xmlns="http://www.w3.org/2000/svg">
<g clip-path="url(#clip0)">
<path opacity="0.1" d="M649.001 313.431C649.012 326.653 647.703 339.827 645.105 352.661C644.231 356.986 643.215 361.22 642.058 365.365C640.642 370.481 639.001 375.5 637.143 380.4C636.206 382.879 635.216 385.308 634.173 387.688C634.19 401.247 631.906 414.662 627.467 427.087C619.441 449.379 605.131 467.404 587.143 477.876C575.897 484.436 563.606 487.885 551.145 487.98H123.203C104.163 488.03 85.4514 481.915 68.9714 470.258L68.7179 470.082C66.3706 468.403 64.082 466.625 61.8522 464.748C56.8353 460.511 52.1218 455.76 47.7627 450.548C41.8626 443.5 36.6636 435.625 32.2736 427.087C21.9629 407.073 16.5008 383.898 16.52 360.246C6.07819 337.849 -0.0105591 311.02 -0.0105591 282.19C-0.0105591 245.815 9.66532 212.634 25.5622 187.516C28.8764 182.268 32.5067 177.33 36.4228 172.744C40.2867 168.205 44.4398 164.049 48.8427 160.316C52.3654 157.326 56.047 154.625 59.8631 152.233C61.4555 151.243 63.0535 150.306 64.679 149.437C66.1061 148.663 67.5498 147.942 69.01 147.262C70.7622 146.449 72.5365 145.701 74.3328 145.019C76.1291 144.336 77.9016 143.739 79.6501 143.227C82.2215 142.459 84.837 141.835 87.4966 141.354C89.7007 140.957 91.9048 140.681 94.1088 140.472C95.8611 140.31 97.6298 140.223 99.4096 140.196H100.374C102.336 140.196 104.286 140.29 106.22 140.452C106.424 139.953 106.644 139.448 106.848 138.956C107.62 137.158 108.419 135.366 109.223 133.615C109.221 133.599 109.221 133.583 109.223 133.567C109.361 133.258 109.499 132.954 109.642 132.658C110.292 131.223 110.97 129.802 111.664 128.394C111.984 127.721 112.298 127.087 112.623 126.454C112.692 126.297 112.767 126.144 112.849 125.996C113.18 125.323 113.516 124.649 113.857 123.975C115.558 120.652 117.327 117.388 119.164 114.181L119.632 113.36C119.919 112.861 120.183 112.376 120.503 111.878C121.263 110.578 122.045 109.271 122.833 107.991C123.384 107.075 123.935 106.166 124.531 105.297C125.963 103.051 127.433 100.806 128.939 98.5606C130.445 96.3153 132.01 94.0992 133.633 91.9123C133.854 91.6091 134.074 91.3128 134.306 91.0164L136.658 87.8774C136.774 87.7292 136.873 87.5945 136.984 87.4598C137.265 87.0893 137.535 86.7188 137.838 86.3618C139.099 84.725 140.394 83.1218 141.695 81.5254C148.313 73.4675 155.363 65.9582 162.799 59.0475C163.091 58.7646 163.388 58.4952 163.68 58.2257C165.08 56.9391 166.502 55.666 167.923 54.4132C175.743 47.5556 183.917 41.3231 192.394 35.7546C192.978 35.3437 193.573 34.9597 194.174 34.5825C201.774 29.6674 209.59 25.2688 217.586 21.407C221.945 19.2986 226.403 17.3182 230.888 15.5063C233.875 14.3073 236.872 13.1689 239.908 12.0979C244.654 10.4274 249.433 8.92973 254.246 7.60499C268.423 3.71622 282.846 1.31399 297.357 0.424455C301.765 0.150526 306.223 0.00907267 310.731 9.13875e-05C332.479 -0.0351066 354.143 3.3149 375.2 9.96931C375.417 10.3715 375.715 10.6994 376.065 10.9221C376.415 11.1448 376.805 11.255 377.2 11.2424H379.051C379.856 11.5118 380.655 11.7813 381.459 12.0642C385.952 13.6449 390.38 15.3715 394.744 17.2441L395.846 17.7291C406.617 22.4113 417.098 28.0392 427.205 34.569C436.316 40.4411 445.088 47.0667 453.461 54.3997C454.75 55.5313 456.021 56.672 457.274 57.8216C458.795 56.6315 460.341 55.4909 461.913 54.3997C467.985 50.1725 474.434 46.8116 481.133 44.3833C495.139 39.3167 509.958 38.6081 524.245 42.3221C542.566 47.071 559.152 58.8589 572.547 75.6247C578.001 82.4845 582.856 90.02 587.033 98.1093C587.336 98.6886 587.639 99.2747 587.931 99.8674C591.521 107.027 594.607 114.547 597.155 122.345C597.249 122.635 597.343 122.904 597.425 123.187C599.778 130.49 601.675 137.999 603.101 145.652C603.167 146.042 603.244 146.426 603.31 146.817C604.644 154.223 605.55 161.734 606.021 169.295C606.021 169.564 606.021 169.841 606.065 170.123C606.297 174.035 606.414 177.987 606.418 181.979C606.418 185.549 606.319 189.092 606.137 192.608C606.137 192.992 606.093 193.389 606.065 193.787C606.016 194.804 605.944 195.808 605.872 196.832C610.081 200.981 614.019 205.524 617.653 210.418C619.258 212.56 620.812 214.783 622.315 217.087C626.891 224.098 630.913 231.624 634.327 239.564C643.645 261.066 649.001 286.359 649.001 313.431Z" fill="#6C63FF"/>
<path opacity="0.1" d="M586.735 475.384C586.735 479.984 573.77 484.295 551.145 488H123.202C104.162 488.05 85.4509 481.935 68.9709 470.278L68.7175 470.103C75.2195 467.206 86.9562 464.505 102.93 462.067L103.646 461.959C110.81 460.888 118.816 459.871 127.566 458.907C127.787 458.907 128.013 458.867 128.233 458.833C135.176 458.079 142.561 457.372 150.389 456.712C150.637 456.712 150.88 456.658 151.128 456.644C154.147 456.379 157.229 456.128 160.374 455.89L161.586 455.795C184.481 454.058 210.505 452.67 238.729 451.754H238.762C242.714 451.619 246.709 451.5 250.746 451.397C255.235 451.267 259.779 451.152 264.378 451.053C267.888 450.959 271.443 450.892 275.008 450.824H275.09C291.174 450.528 307.793 450.38 324.787 450.38C366.807 450.38 406.525 451.316 441.718 453H441.817C447.228 453.256 452.54 453.539 457.72 453.829L462.128 454.085C467.972 454.426 473.666 454.792 479.209 455.182C544.395 459.716 586.735 467.078 586.735 475.384Z" fill="#6C63FF"/>
<g opacity="0.2">
<path opacity="0.2" d="M374.847 447.288C374.829 448.014 374.761 448.738 374.643 449.45C370.808 448.705 366.95 448.031 363.071 447.429C363.071 447.241 363.071 447.045 363.071 446.85C363.107 444.83 363.583 442.859 364.449 441.138C365.584 438.942 367.309 437.568 369.21 437.642C371.111 437.716 372.758 439.218 373.778 441.488C374.549 443.271 374.918 445.273 374.847 447.288Z" fill="#3F3D56"/>
<path opacity="0.2" d="M375.163 435.777C375.298 430.568 372.768 426.243 369.514 426.117C366.259 425.992 363.512 430.113 363.377 435.322C363.242 440.531 365.772 444.856 369.026 444.982C372.281 445.108 375.028 440.987 375.163 435.777Z" fill="#3F3D56"/>
<path opacity="0.2" d="M375.464 424.245C375.598 419.036 373.069 414.711 369.815 414.585C366.56 414.459 363.812 418.58 363.678 423.79C363.543 428.999 366.072 433.324 369.327 433.45C372.582 433.576 375.329 429.454 375.464 424.245Z" fill="#3F3D56"/>
<path opacity="0.2" d="M375.759 412.713C375.894 407.504 373.364 403.179 370.11 403.053C366.855 402.927 364.108 407.048 363.973 412.258C363.838 417.467 366.368 421.792 369.622 421.918C372.877 422.043 375.624 417.922 375.759 412.713Z" fill="#3F3D56"/>
<path opacity="0.2" d="M376.054 401.18C376.189 395.971 373.659 391.646 370.405 391.52C367.15 391.395 364.403 395.516 364.268 400.725C364.133 405.935 366.663 410.26 369.917 410.385C373.172 410.511 375.919 406.39 376.054 401.18Z" fill="#3F3D56"/>
<path opacity="0.2" d="M350.106 321.164C349.33 319.879 348.63 318.529 348.012 317.122L363.584 314.61L346.822 314.118C345.326 309.781 344.57 305.116 344.599 300.409C344.628 295.702 345.443 291.052 346.993 286.743L369.099 301.865L348.849 282.439C350.892 278.4 353.594 274.919 356.787 272.214C359.98 269.509 363.594 267.638 367.405 266.717C371.216 265.797 375.141 265.846 378.935 266.864C382.73 267.881 386.312 269.843 389.458 272.629C392.604 275.414 395.246 278.963 397.22 283.053C399.194 287.143 400.456 291.686 400.929 296.4C401.402 301.113 401.075 305.895 399.968 310.447C398.861 314.998 396.998 319.222 394.496 322.854C395.703 324.852 396.728 327.005 397.554 329.274L377.117 341.264L398.788 333.295C400.153 338.8 400.373 344.634 399.428 350.269C398.483 355.905 396.404 361.162 393.377 365.567C396.524 370.786 398.405 376.981 398.807 383.446C399.208 389.91 398.114 396.382 395.648 402.121C393.182 407.861 389.445 412.636 384.864 415.902C380.282 419.167 375.042 420.79 369.741 420.586C364.441 420.382 359.294 418.358 354.89 414.746C350.486 411.135 347.002 406.081 344.837 400.163C342.672 394.245 341.913 387.702 342.647 381.281C343.381 374.861 345.578 368.822 348.987 363.856C345.228 357.62 343.293 350.02 343.493 342.277C343.693 334.534 346.016 327.098 350.089 321.164H350.106Z" fill="#6C63FF"/>
<path opacity="0.1" d="M399.989 344.457C399.797 352.204 397.466 359.644 393.377 365.567C396.524 370.786 398.405 376.981 398.807 383.446C399.208 389.91 398.114 396.382 395.648 402.121C393.182 407.861 389.445 412.636 384.864 415.902C380.282 419.167 375.042 420.79 369.741 420.586C364.441 420.382 359.294 418.358 354.89 414.746C350.486 411.135 347.002 406.081 344.837 400.163C342.672 394.245 341.913 387.702 342.647 381.281C343.381 374.861 345.578 368.822 348.987 363.856C345.367 357.841 400.089 340.584 399.989 344.457Z" fill="black"/>
</g>
<g opacity="0.2">
<path opacity="0.2" d="M291.092 447.288C291.074 448.014 291.006 448.738 290.888 449.45C287.053 448.705 283.196 448.031 279.317 447.429C279.317 447.241 279.317 447.045 279.317 446.85C279.352 444.83 279.828 442.859 280.694 441.138C281.829 438.942 283.554 437.568 285.455 437.642C287.356 437.716 289.003 439.218 290.023 441.488C290.794 443.271 291.163 445.273 291.092 447.288Z" fill="#3F3D56"/>
<path opacity="0.2" d="M291.402 435.78C291.537 430.571 289.008 426.246 285.753 426.12C282.499 425.994 279.751 430.116 279.616 435.325C279.482 440.534 282.011 444.859 285.266 444.985C288.52 445.111 291.268 440.99 291.402 435.78Z" fill="#3F3D56"/>
<path opacity="0.2" d="M291.703 424.248C291.838 419.039 289.308 414.714 286.054 414.588C282.799 414.462 280.052 418.583 279.917 423.793C279.782 429.002 282.312 433.327 285.566 433.453C288.821 433.578 291.568 429.457 291.703 424.248Z" fill="#3F3D56"/>
<path opacity="0.2" d="M291.998 412.716C292.133 407.506 289.603 403.181 286.349 403.056C283.094 402.93 280.347 407.051 280.212 412.26C280.077 417.47 282.607 421.795 285.861 421.92C289.116 422.046 291.863 417.925 291.998 412.716Z" fill="#3F3D56"/>
<path opacity="0.2" d="M292.293 401.183C292.428 395.974 289.899 391.649 286.644 391.523C283.389 391.398 280.642 395.519 280.507 400.728C280.373 405.937 282.902 410.262 286.156 410.388C289.411 410.514 292.159 406.393 292.293 401.183Z" fill="#3F3D56"/>
<path opacity="0.2" d="M266.351 321.164C265.575 319.879 264.875 318.529 264.257 317.122L279.829 314.61L263.067 314.118C261.571 309.781 260.815 305.116 260.844 300.409C260.874 295.702 261.688 291.052 263.238 286.743L285.345 301.865L265.095 282.439C267.138 278.4 269.84 274.919 273.032 272.214C276.225 269.509 279.84 267.638 283.65 266.717C287.461 265.797 291.386 265.846 295.181 266.864C298.975 267.881 302.557 269.843 305.703 272.629C308.849 275.414 311.491 278.963 313.465 283.053C315.439 287.143 316.702 291.686 317.174 296.4C317.647 301.113 317.32 305.895 316.213 310.447C315.106 314.998 313.243 319.222 310.741 322.854C311.948 324.852 312.973 327.005 313.799 329.274L293.362 341.264L315.034 333.295C316.398 338.8 316.618 344.634 315.673 350.269C314.729 355.905 312.649 361.162 309.623 365.567C312.769 370.786 314.65 376.981 315.052 383.446C315.454 389.91 314.359 396.382 311.893 402.121C309.427 407.861 305.69 412.636 301.109 415.902C296.527 419.167 291.287 420.79 285.986 420.586C280.686 420.382 275.539 418.358 271.135 414.746C266.731 411.135 263.248 406.081 261.083 400.163C258.918 394.245 258.159 387.702 258.893 381.281C259.626 374.861 261.823 368.822 265.233 363.856C261.474 357.62 259.538 350.02 259.738 342.277C259.938 334.534 262.261 327.098 266.335 321.164H266.351Z" fill="#6C63FF"/>
<path opacity="0.1" d="M316.235 344.457C316.042 352.204 313.712 359.644 309.623 365.567C312.769 370.786 314.65 376.981 315.052 383.446C315.454 389.91 314.359 396.382 311.893 402.121C309.427 407.861 305.69 412.636 301.109 415.902C296.528 419.167 291.287 420.79 285.986 420.586C280.686 420.382 275.539 418.358 271.135 414.746C266.731 411.135 263.248 406.081 261.083 400.163C258.918 394.245 258.159 387.702 258.893 381.281C259.626 374.861 261.823 368.822 265.233 363.856C261.612 357.841 316.334 340.584 316.235 344.457Z" fill="black"/>
</g>
<g opacity="0.2">
<path opacity="0.2" d="M519.874 454.657C519.832 456.033 519.698 457.403 519.472 458.752C512.089 457.311 504.652 456.022 497.161 454.886C497.161 454.522 497.161 454.152 497.161 453.775C497.231 449.885 498.148 446.088 499.817 442.775C502.021 438.551 505.328 435.904 508.981 436.039C512.634 436.174 515.813 439.077 517.797 443.448C519.293 446.892 520.01 450.761 519.874 454.657Z" fill="#3F3D56"/>
<path opacity="0.2" d="M520.474 432.48C520.733 422.448 515.862 414.119 509.593 413.877C503.324 413.635 498.032 421.571 497.772 431.603C497.513 441.635 502.385 449.964 508.654 450.206C514.923 450.448 520.215 442.512 520.474 432.48Z" fill="#3F3D56"/>
<path opacity="0.2" d="M521.047 410.278C521.306 400.246 516.434 391.917 510.165 391.675C503.897 391.433 498.604 399.369 498.345 409.401C498.086 419.433 502.957 427.762 509.226 428.004C515.495 428.246 520.787 420.31 521.047 410.278Z" fill="#3F3D56"/>
<path opacity="0.2" d="M521.625 388.076C521.884 378.044 517.012 369.715 510.744 369.473C504.475 369.231 499.183 377.167 498.923 387.199C498.664 397.231 503.536 405.56 509.804 405.802C516.073 406.044 521.365 398.108 521.625 388.076Z" fill="#3F3D56"/>
<path opacity="0.2" d="M521.552 364.864C521.798 354.827 516.913 346.504 510.641 346.274C504.369 346.044 499.085 353.994 498.839 364.031C498.592 374.068 503.477 382.391 509.749 382.621C516.021 382.851 521.305 374.901 521.552 364.864Z" fill="#3F3D56"/>
<path opacity="0.2" d="M472.239 211.853C470.752 209.38 469.406 206.785 468.211 204.086L498.186 199.25L465.924 198.3C463.042 189.951 461.584 180.97 461.639 171.909C461.694 162.847 463.261 153.894 466.244 145.598L508.81 174.704L469.831 137.306C473.772 129.549 478.978 122.867 485.124 117.677C491.27 112.487 498.225 108.901 505.555 107.14C512.885 105.38 520.433 105.485 527.728 107.447C535.023 109.409 541.91 113.187 547.959 118.545C554.007 123.903 559.088 130.727 562.885 138.591C566.682 146.455 569.113 155.191 570.027 164.254C570.941 173.317 570.319 182.513 568.198 191.269C566.078 200.024 562.505 208.153 557.702 215.146C560.023 218.996 561.998 223.14 563.592 227.507L524.244 250.605L565.961 235.247C568.591 245.832 569.019 257.051 567.207 267.89C565.395 278.728 561.401 288.843 555.586 297.318C561.642 307.365 565.263 319.292 566.035 331.736C566.807 344.18 564.699 356.639 559.952 367.687C555.205 378.736 548.011 387.928 539.192 394.214C530.372 400.499 520.284 403.624 510.08 403.231C499.877 402.837 489.97 398.942 481.492 391.99C473.014 385.038 466.307 375.309 462.139 363.917C457.971 352.525 456.509 339.929 457.921 327.569C459.333 315.21 463.561 303.585 470.123 294.025C462.89 282.019 459.167 267.391 459.551 252.488C459.935 237.585 464.403 223.272 472.239 211.846V211.853Z" fill="#6C63FF"/>
<path opacity="0.1" d="M568.282 256.687C567.92 271.593 563.455 285.914 555.608 297.332C561.664 307.379 565.285 319.306 566.057 331.75C566.83 344.194 564.722 356.652 559.975 367.701C555.228 378.749 548.033 387.941 539.214 394.227C530.394 400.512 520.306 403.637 510.103 403.244C499.899 402.851 489.992 398.955 481.514 392.003C473.036 385.051 466.329 375.323 462.161 363.931C457.993 352.539 456.531 339.943 457.943 327.583C459.355 315.223 463.583 303.598 470.145 294.038C463.125 282.445 568.474 249.23 568.282 256.687Z" fill="black"/>
</g>
<path d="M86.9617 455.843L92.7418 455.822H100.891L111.195 251.197L213.238 43.0361L208.803 37.2162V22.4779L98.4449 246.374L86.9617 455.843Z" fill="#F1C0C0"/>
<path opacity="0.1" d="M93.359 455.822H100.891L111.195 251.197L213.238 43.0361L208.803 37.2162L103.547 248.079L93.359 455.822Z" fill="black"/>
<path d="M69.9297 457.547L334.336 482.281L334.562 482.301L590.449 463.063L590.642 463.05V449.841L308.686 443.516L73.4507 443.24H71.7315L71.5442 444.721L69.9297 457.547Z" fill="#F1C0C0"/>
<path opacity="0.1" d="M69.9297 457.547L334.336 482.281L334.562 482.301L590.449 463.063L590.642 462.808V450.117H590.416L334.336 460.571L73.4507 443.24H73.4121L72.9493 443.61L71.5442 444.721L69.9297 457.547Z" fill="black"/>
<path opacity="0.1" d="M69.9297 457.547L334.336 482.281V460.571L72.9493 443.61L71.5442 444.721L69.9297 457.547Z" fill="black"/>
<path d="M208.77 36.9401L325.338 189.887L321.734 458.921L331.636 460.383L331.801 460.41H341.703L342.888 201.439L561.162 290.569L564.843 449.268L572.811 450.36L575.511 450.73L569.262 279.563L341.086 181.635L215.972 22.6329H208.77V36.9401Z" fill="#F1C0C0"/>
<path opacity="0.1" d="M341.989 196.488L342.888 201.439L561.162 290.569L564.843 449.268L572.811 450.36L566.562 287.268L341.989 196.488Z" fill="black"/>
<path opacity="0.1" d="M208.77 36.9401L325.338 189.887L321.734 458.921L331.636 460.383L334.336 181.083L208.77 22.6329V36.9401Z" fill="black"/>
<path d="M342.414 304.459L422.471 323.73L422.499 323.737L562.716 357.504L569.135 354.359L569.113 353.806L568.695 342.86L342.496 286.986L342.414 304.459Z" fill="#F1C0C0"/>
<path opacity="0.1" d="M422.499 323.737L562.716 357.504L569.135 354.359L569.113 353.806L422.499 323.737Z" fill="black"/>
<path d="M427.86 236.136L430.025 381.862L431.144 456.624L441.002 456.22L447.206 455.964L445.278 238.244L441.002 236.506L440.065 236.136H427.86Z" fill="#F1C0C0"/>
<path opacity="0.1" d="M427.948 236.102V236.136L430.025 381.862L431.144 456.624L441.002 456.22V236.102H427.948Z" fill="black"/>
<path d="M273.448 273.352C274.026 273.736 274.579 274.175 275.101 274.665C275.718 275.326 276.273 276.069 276.754 276.882C279.118 280.62 281.3 284.965 281.069 289.68C281.074 290.366 280.968 291.046 280.757 291.682C280.546 292.318 280.234 292.897 279.84 293.385C278.865 294.402 277.465 294.449 276.187 294.449C274.798 294.449 273.338 294.449 272.137 293.573C270.936 292.698 269.933 290.993 268.511 291.034C268.31 291.074 268.106 291.074 267.905 291.034C267.415 290.839 267.315 290.05 266.996 289.552C266.445 288.656 265.282 288.878 264.417 289.269C263.552 289.66 262.593 290.246 261.739 289.794C261.243 289.475 260.838 288.979 260.576 288.373C258.532 284.332 258.097 279.475 257.711 274.78C257.474 271.924 255.667 262.184 260.654 264.4C262.858 265.37 264.918 267.31 266.924 268.731L273.448 273.352Z" fill="#3F3D56"/>
<path d="M268.522 274.315C268.967 274.707 269.507 274.905 270.056 274.878C270.604 274.851 271.129 274.601 271.547 274.167C272.368 273.261 272.891 272.021 273.018 270.678C273.569 270.469 273.85 271.351 274.203 271.89C274.82 272.806 276.077 272.793 276.639 273.77C277.03 274.443 276.942 275.379 277.217 276.141C277.575 277.124 278.462 277.636 279.069 278.431C279.641 279.299 280.054 280.308 280.281 281.388L281.185 284.702C281.617 286.08 281.895 287.524 282.011 288.993C282.068 289.727 282.005 290.468 281.825 291.173C281.645 291.877 281.353 292.53 280.964 293.095C279.752 294.691 277.763 294.86 276.005 294.813C275.418 294.828 274.832 294.744 274.264 294.563C272.704 293.971 271.707 292.051 271.294 290.118C270.88 288.185 270.925 286.157 270.682 284.177C270.42 282.231 269.957 280.335 269.305 278.532C268.82 277.131 267.486 275.043 267.508 273.554C267.905 273.554 268.191 273.999 268.522 274.315Z" fill="#3F3D56"/>
<path d="M270.5 267.492C270.243 266.535 270.093 265.54 270.054 264.535C270.054 262.514 270.809 260.614 271.569 258.809L265.271 259.853C264.511 259.981 263.662 260.17 263.232 260.944C263.069 261.328 262.984 261.754 262.984 262.187C262.984 262.62 263.069 263.046 263.232 263.43C263.548 264.198 263.799 265.004 263.982 265.835C263.996 266.561 264.064 267.285 264.186 267.997C264.382 268.52 264.656 268.993 264.996 269.391C266.797 271.83 268.147 274.706 269.492 277.555C269.453 277.474 273.288 273.844 273.134 272.658C273.046 271.985 271.938 271.176 271.586 270.53C271.099 269.591 270.733 268.566 270.5 267.492Z" fill="#BE6F72"/>
<path d="M324.5 241.174V247.809L231.56 269.97L226.738 273.541H210.103V269.802L301.418 242.831L324.5 241.174Z" fill="#F1C0C0"/>
<path opacity="0.1" d="M324.5 247.809L231.56 269.97L226.738 273.541H210.103L302.096 249.473L324.5 247.809Z" fill="black"/>
<path d="M249.881 429.525C248.846 427.992 247.416 426.933 245.825 426.519C244.234 426.106 242.576 426.363 241.12 427.248C240.808 427.428 240.533 427.69 240.315 428.016C239.764 428.959 240.117 430.259 240.167 431.425C240.293 434.267 238.442 436.578 236.778 438.565C235.885 439.629 234.976 440.767 234.574 442.216C234.172 443.664 234.469 445.503 235.549 446.257C236.02 446.546 236.533 446.72 237.059 446.769C238.82 447.189 240.626 447.251 242.404 446.951C244.162 446.54 245.886 445.321 246.647 443.341C246.793 442.804 247.036 442.313 247.357 441.906C248.327 440.969 249.815 442.067 250.917 441.401C251.826 440.848 251.865 439.979 251.876 438.834C251.909 435.668 251.523 432.085 249.881 429.525Z" fill="#6C63FF"/>
<path d="M263.106 429.404C263.783 431.586 263.877 433.964 263.965 436.295C264.015 437.642 264.048 439.083 263.453 440.222C262.858 441.36 261.695 441.96 260.582 442.243C258.284 442.822 255.623 442.276 254.141 440.047C253.005 438.343 252.768 436.005 252.978 433.796C253.154 431.984 253.529 429.862 252.465 428.575C252.19 428.232 251.832 427.989 251.578 427.619C251.027 426.797 251.115 425.558 251.413 424.547C251.8 423.581 252.091 422.561 252.278 421.509C252.322 421.011 259.739 421.86 260.422 422.271C261.353 422.83 261.21 423.766 261.491 424.898C261.882 426.474 262.632 427.895 263.106 429.404Z" fill="#6C63FF"/>
<path d="M264.467 332.635C265.921 333.787 266.483 336.05 266.709 338.152C267.332 343.911 266.241 349.731 266.158 355.544C266.081 363.688 268.01 371.98 266.362 379.868C265.376 384.583 266.213 389.972 265.288 394.734C265.012 396.149 264.505 397.482 264.241 398.897C263.69 401.962 264.268 405.168 265.045 408.165C265.293 408.973 265.451 409.819 265.514 410.678C265.476 412.001 265.202 413.298 264.709 414.477L261.403 424.035C261.034 425.106 259.579 425.282 258.648 425.423C256.896 425.679 254.939 425.861 253.545 424.534C252.151 423.207 251.815 420.984 251.6 418.909C251.188 414.926 251.004 410.913 251.049 406.899C251.11 405.851 251.034 404.799 250.823 403.78C250.52 402.629 249.854 401.632 249.672 400.412C249.44 398.836 250.096 397.287 250.338 395.697C250.505 394.245 250.486 392.771 250.283 391.326C250.068 389.17 249.821 387.015 249.539 384.873C249.143 381.875 249.71 378.918 250.091 375.914C250.449 373.091 249.991 370.215 249.539 367.413C249.579 369.687 249.347 371.956 248.851 374.149C248.559 375.22 248.14 376.244 247.886 377.335C246.757 382.232 249.165 387.372 248.823 392.444C248.663 394.815 247.903 397.159 248.118 399.496C248.267 401.207 248.917 402.777 249.363 404.407C249.81 406.037 250.041 407.903 249.363 409.425C247.572 413.561 248.911 419.186 250.515 423.429C250.84 424.182 251.124 424.96 251.363 425.76C251.837 427.673 251.441 429.727 251.567 431.721C251.106 431.813 250.633 431.776 250.185 431.611C249.738 431.447 249.326 431.16 248.983 430.771C248.741 430.462 248.542 430.098 248.305 429.774C247.643 429.003 246.859 428.405 246.002 428.016C245.498 427.672 244.925 427.511 244.349 427.552C243.743 427.758 243.199 428.172 242.779 428.744C242.234 429.33 241.655 429.868 241.048 430.354C240.79 430.597 240.488 430.761 240.167 430.832C240.005 430.862 239.84 430.83 239.695 430.739C239.55 430.649 239.431 430.504 239.357 430.327C239.322 430.214 239.302 430.096 239.296 429.977C239.091 427.943 238.983 425.896 238.971 423.847C238.971 420.324 235.522 417.899 235.086 414.416C234.739 411.608 235.384 408.745 235.169 405.916C235.064 404.461 234.734 403.033 234.756 401.578C234.756 400.635 234.932 399.712 234.993 398.776C235.043 397.736 235.03 396.694 234.954 395.657L234.783 392.403C234.618 389.19 234.436 385.91 233.4 382.973C232.172 379.544 231.444 375.878 231.251 372.142C231.141 369.784 231.213 367.426 230.992 365.062C230.794 362.927 230.353 360.805 230.48 358.663C230.584 357.006 231.031 355.403 231.136 353.746C231.35 350.559 230.359 347.461 229.582 344.41C228.805 341.358 228.232 337.977 229.251 335.033C229.397 334.55 229.639 334.119 229.956 333.78C230.347 333.464 230.792 333.261 231.257 333.187C240.711 330.76 250.401 330.004 260.031 330.944C261.601 331.053 263.124 331.634 264.467 332.635Z" fill="#3F3D56"/>
<path d="M233.185 261.093C238.061 261.093 242.013 256.261 242.013 250.302C242.013 244.342 238.061 239.51 233.185 239.51C228.31 239.51 224.358 244.342 224.358 250.302C224.358 256.261 228.31 261.093 233.185 261.093Z" fill="#BE6F72"/>
<path d="M231.477 263.78C231.604 264.397 231.604 265.043 231.477 265.659C231.338 266.091 231.143 266.491 230.899 266.845C230.044 268.192 229.099 269.45 228.072 270.604C228.595 272.032 229.537 273.168 230.711 273.79C231.878 274.397 233.101 274.824 234.353 275.063C234.979 275.264 235.629 275.319 236.271 275.225C236.862 275.043 237.422 274.733 237.924 274.308L242.828 270.718C243.568 270.228 244.253 269.624 244.867 268.92C245.766 267.79 246.275 266.28 246.288 264.703C246.311 264.421 246.249 264.138 246.112 263.908C245.924 263.708 245.688 263.588 245.44 263.565C243.715 263.1 242.354 261.389 241.583 259.449C240.885 257.46 240.434 255.356 240.244 253.205L235.015 256.573C234.238 257.078 233.466 257.583 232.662 258.021C232.149 258.304 231.113 258.54 230.75 259.112C230.055 260.17 231.295 262.507 231.477 263.78Z" fill="#BE6F72"/>
<path d="M228.105 268.643C227.36 269.39 226.779 270.35 226.413 271.439C226.072 272.786 226.413 274.207 226.722 275.541C228.168 281.226 229.273 287.032 230.028 292.913C230.491 296.955 230.662 301.057 230.888 305.146C231.35 313.485 232.023 326.782 232.921 335.067C236.227 335.249 239.45 334.07 242.729 333.639C248.856 332.844 255.165 334.663 261.166 332.965C259.711 325.94 258.257 313.943 256.802 306.924C256.158 304.159 255.712 301.33 255.468 298.47C255.342 296.416 255.419 294.355 255.441 292.287C255.491 288.245 255.309 284.204 255.127 280.162C254.917 275.447 254.708 270.732 253.793 266.117C253.73 265.53 253.504 264.986 253.154 264.575C252.603 264.083 251.887 264.258 251.231 264.366C249.223 264.678 247.191 264.089 245.512 262.709C244.784 262.103 243.809 261.362 243.131 262.036C242.842 262.442 242.651 262.939 242.58 263.47C242.28 264.423 241.817 265.287 241.223 266.004C240.628 266.72 239.915 267.274 239.131 267.626C237.561 268.322 235.916 268.734 234.249 268.852C233.739 268.986 233.207 268.913 232.733 268.643C231.951 268.057 231.896 265.949 230.91 265.808C230.044 265.686 228.689 267.963 228.105 268.643Z" fill="#3F3D56"/>
<path d="M241.142 285.093C239.109 282.715 238.216 279.266 236.734 276.336C235.725 274.366 234.435 272.632 232.926 271.217C232.168 270.604 231.472 269.883 230.854 269.068C230.331 268.28 229.934 267.229 229.141 266.926C228.813 266.839 228.473 266.85 228.149 266.959C227.826 267.068 227.529 267.272 227.284 267.552C226.798 268.118 226.338 268.716 225.906 269.344C223.57 272.301 219.465 272.712 217.614 276.134C217.114 276.859 216.775 277.729 216.627 278.66C216.094 283.64 217.148 288.681 219.57 292.738C220.039 293.679 220.759 294.392 221.608 294.759C221.493 296.015 221.629 297.286 222.005 298.464C223.025 302.727 224.279 306.901 225.758 310.959C225.404 312.546 225.157 314.166 225.019 315.802C224.633 319.918 224.992 324.094 224.628 328.216C224.33 331.584 223.526 334.865 223.498 338.239C223.498 338.778 223.537 339.418 223.917 339.694C224.119 339.821 224.346 339.88 224.573 339.863L231.35 340.112C235.285 340.254 239.257 340.395 243.131 339.506C243.647 339.413 244.147 339.219 244.613 338.933C245.925 338.037 246.36 336.017 246.569 334.218C246.843 331.885 246.952 329.528 246.895 327.172C247.716 330.345 248.691 333.625 251.17 334.999C252.482 335.727 253.981 335.673 255.419 335.626C258.519 335.457 261.608 335.068 264.67 334.461C264.859 334.489 265.051 334.463 265.23 334.385C265.409 334.307 265.571 334.179 265.702 334.01C265.833 333.842 265.93 333.639 265.986 333.416C266.041 333.194 266.053 332.959 266.02 332.729L266.053 329.052C266.12 321.581 264.604 314.441 264.015 307.005C263.827 304.661 263.844 302.29 263.376 299.993C263.183 299.029 262.902 298.086 262.731 297.116C262.584 296.167 262.492 295.206 262.455 294.24L262.026 286.831C261.822 283.402 261.53 280.095 261.315 276.673C261.197 273.341 260.802 270.032 260.136 266.798C259.656 264.777 258.659 262.487 256.934 262.238C256.014 262.11 255.121 262.601 254.245 262.945C252.092 263.774 249.781 263.762 247.633 262.911C246.969 262.591 246.278 262.365 245.572 262.238C245.217 262.179 244.855 262.236 244.524 262.404C244.193 262.572 243.904 262.845 243.688 263.194C243.474 263.72 243.373 264.305 243.396 264.892C243.137 271.621 242.657 278.552 241.142 285.093Z" fill="#6C63FF"/>
<path d="M232.276 285.295C229.736 282.021 227.13 278.687 223.857 276.605C222.567 275.784 221.102 275.164 219.674 275.474C218.247 275.784 216.919 277.299 216.985 279.071C217.029 280.169 217.575 281.139 217.746 282.216C217.944 283.429 217.658 284.722 217.966 285.894C218.217 286.667 218.592 287.37 219.068 287.962L222.969 293.614C224.623 295.971 226.276 298.363 228.402 299.993C230.529 301.623 233.285 302.384 235.621 301.225C237.283 300.281 238.665 298.73 239.577 296.786C240.547 294.9 241.23 292.839 242.139 290.892C243.554 287.782 245.422 285.013 247.65 282.722C246.503 282.358 245.065 281.846 244.343 280.701C244.138 280.337 243.963 279.949 243.82 279.542L242.927 277.185C242.624 277.165 242.32 277.223 242.036 277.354C241.751 277.485 241.492 277.686 241.274 277.946C240.891 278.487 240.481 278.997 240.046 279.475C239.269 280.189 238.216 280.384 237.511 281.199C237.238 281.549 236.991 281.928 236.772 282.331C236.239 283.188 235.562 283.896 234.786 284.407C234.011 284.918 233.155 285.221 232.276 285.295Z" fill="#3F3D56"/>
<path d="M247.853 271.21C249.765 266.946 249.677 261.833 250.223 257.017C250.282 255.742 250.648 254.516 251.275 253.494C252.377 251.972 254.322 251.952 255.986 252.147C256.477 252.214 257.088 252.497 257.061 253.097C257.022 253.312 256.937 253.51 256.813 253.669C255.2 256.214 254.252 259.294 254.091 262.507C254.956 263.241 256.295 261.732 257.127 262.507C257.678 263.073 257.425 264.191 257.094 264.999C256.326 266.872 255.535 268.731 254.719 270.577C254.068 272.204 253.219 273.7 252.201 275.016C251.501 275.838 250.68 276.484 249.969 277.292C248.316 279.185 247.319 281.859 245.611 283.705C245.466 283.896 245.271 284.018 245.06 284.049C244.842 284.03 244.638 283.918 244.481 283.732C243.628 282.884 242.92 281.837 242.398 280.654C241.748 279.185 241.847 278.754 242.872 277.717C244.79 275.864 246.658 273.877 247.853 271.21Z" fill="#BE6F72"/>
<path d="M229.08 282.398C229.411 282.648 229.819 282.931 230.182 282.722C230.331 282.612 230.457 282.462 230.551 282.284C231.181 281.256 231.707 280.139 232.116 278.956C232.187 278.789 232.226 278.605 232.232 278.417C232.232 277.986 231.918 277.67 231.626 277.42C230.061 276.201 228.379 275.224 226.617 274.511C225.163 273.837 223.642 273.251 222.099 273.419C221.519 273.467 220.953 273.657 220.435 273.979C219.917 274.301 219.458 274.748 219.085 275.292C217.983 277.023 219.829 277.548 220.986 278.175C223.664 279.664 226.562 280.526 229.08 282.398Z" fill="#6C63FF"/>
<path opacity="0.1" d="M227.345 293.849C227.326 294.003 227.337 294.16 227.377 294.308C227.418 294.455 227.486 294.589 227.576 294.698C227.736 293.742 227.526 292.731 227.692 291.768C227.934 290.32 229.086 289.229 229.185 287.774C227.075 287.268 227.361 292.287 227.345 293.849Z" fill="black"/>
<path opacity="0.2" d="M324.5 241.174V247.809L302.096 249.473L301.418 242.831L324.5 241.174Z" fill="black"/>
<path d="M225.24 251.905C226.639 250.51 225.829 247.587 226.777 245.714C227.328 244.69 228.259 244.152 229.174 243.694C230.278 243.062 231.461 242.661 232.673 242.508C233.28 242.437 233.892 242.533 234.465 242.791C235.037 243.049 235.555 243.461 235.979 243.997C236.337 244.495 236.58 245.101 236.916 245.62C237.332 246.225 237.874 246.681 238.486 246.94C239.097 247.198 239.754 247.25 240.387 247.088C241.12 246.886 241.88 246.206 241.831 245.29C241.748 244.733 241.515 244.225 241.17 243.848L239.594 241.713C237.803 239.288 235.814 236.715 233.185 236.109C231.356 235.684 229.482 236.284 227.719 237.005C227.008 237.294 226.209 237.725 226.011 238.608C225.879 239.214 226.077 239.874 225.961 240.487C225.736 241.706 224.457 242.117 223.862 243.141C223.267 244.165 223.449 245.378 223.278 246.509C223.107 247.641 222.611 248.745 222.551 249.918C222.512 250.625 222.804 251.938 223.454 252.194C224.105 252.45 224.837 251.063 225.24 251.905Z" fill="#3F3D56"/>
<path d="M241.296 244.32C240.832 241.356 239.83 238.558 238.365 236.129C237.062 233.86 235.25 232.101 233.147 231.064C232.096 230.561 230.965 230.357 229.84 230.465C228.715 230.574 227.624 230.993 226.65 231.69C225.205 232.952 224.08 234.686 223.405 236.695C221.978 240.454 221.449 245.047 223.107 248.658C223.768 247.674 224.904 248.119 225.906 247.762C227.163 247.324 228.226 246.3 229.422 245.66C233.031 243.714 237.439 245.29 241.296 244.32Z" fill="#FED253"/>
<path opacity="0.1" d="M223.95 244.111C223.823 242.899 223.741 241.491 224.446 240.629C224.481 240.576 224.526 240.534 224.577 240.506C224.627 240.478 224.683 240.464 224.738 240.467C224.787 240.486 224.833 240.518 224.872 240.56C224.91 240.601 224.942 240.652 224.964 240.709C225.371 241.495 225.718 242.325 226 243.188C225.589 243.073 225.16 243.11 224.767 243.296C224.374 243.483 224.036 243.809 223.796 244.232" fill="black"/>
<path opacity="0.1" d="M236.828 240.689L236.629 238.285C236.597 238.086 236.611 237.881 236.668 237.692C236.751 237.533 236.879 237.418 237.028 237.368C237.176 237.318 237.335 237.338 237.472 237.422C237.743 237.606 237.967 237.879 238.117 238.21C238.576 239.071 238.956 239.99 239.252 240.952C238.365 240.743 237.452 240.757 236.569 240.992" fill="black"/>
<path opacity="0.1" d="M241.759 338.287V343.783L237.963 344.093H217.994V338.287H241.759Z" fill="black"/>
<path d="M241.759 338.287V344.093H217.994L154.858 247.412V242.845H168.094L241.759 338.287Z" fill="#F1C0C0"/>
<path opacity="0.1" d="M241.759 338.287V344.093H217.994L154.858 247.412V242.845H168.094L241.759 338.287Z" fill="black"/>
<path opacity="0.1" d="M241.759 338.287V344.093H217.994L154.858 247.412V242.845L218.335 338.287H241.759Z" fill="black"/>
<path d="M163.134 435.19C163.176 435.463 163.171 435.744 163.12 436.015C163.068 436.286 162.972 436.541 162.837 436.764C162.701 436.987 162.529 437.173 162.332 437.312C162.135 437.45 161.917 437.537 161.691 437.568C160.159 438.201 158.533 438.827 157.448 440.262C156.362 441.697 156.148 444.358 157.448 445.523C158.113 446.013 158.876 446.267 159.652 446.257C162.148 446.466 164.749 446.426 167.014 445.132C168.634 444.216 170.16 442.654 171.94 442.795C172.86 442.862 173.841 443.388 174.662 442.876C175.483 442.364 175.714 440.936 175.72 439.744C175.741 437.255 175.434 434.778 174.81 432.408C174.728 432.085 171.223 431.836 170.805 431.735L166.556 431.061C165.752 430.933 164.016 430.192 163.382 431.014C162.749 431.836 163.134 434.213 163.134 435.19Z" fill="#6C63FF"/>
<path d="M188.487 418.377C188.667 419.59 188.959 420.774 189.357 421.907C189.947 423.739 190.702 425.686 192.145 426.575C193.457 427.376 195.066 427.087 196.399 426.326C196.956 426.044 197.444 425.591 197.815 425.012C198.246 424.095 198.438 423.041 198.366 421.988C198.366 419.381 198.24 416.686 197.264 414.369C196.427 412.348 194.967 410.611 194.945 408.374L189.925 409.56C189.656 409.591 189.4 409.715 189.187 409.917C189.027 410.122 188.917 410.375 188.867 410.651C188.331 413.172 188.202 415.796 188.487 418.377Z" fill="#6C63FF"/>
<path d="M128.541 354.386C128.332 356.555 128.42 358.878 129.346 360.751C130.272 362.624 132.222 363.863 133.908 363.115C133.995 363.088 134.076 363.04 134.147 362.975C134.218 362.909 134.277 362.826 134.322 362.731C134.367 362.504 134.341 362.264 134.25 362.058C133.506 359.629 133.567 356.941 134.421 354.567C134.531 354.258 134.768 353.894 135.027 354.015C135.135 354.082 135.222 354.191 135.275 354.325C135.542 354.889 135.675 355.533 135.661 356.184C135.583 356.774 135.568 357.374 135.617 357.969C135.721 358.548 136.228 359.094 136.669 358.845C136.796 358.749 136.907 358.623 136.993 358.473C137.079 358.324 137.139 358.155 137.17 357.976C138.399 353.631 137.843 348.882 137.281 344.336C137.285 344.231 137.271 344.127 137.239 344.03C137.207 343.933 137.158 343.846 137.096 343.774C137.033 343.703 136.959 343.649 136.877 343.617C136.796 343.585 136.71 343.575 136.625 343.588C134.024 343.271 132.602 342.51 131.115 345.467C129.836 347.959 128.541 351.388 128.541 354.386Z" fill="#6C63FF"/>
<path d="M158.947 343.332C158.175 347.252 157.398 351.22 157.349 355.248C157.362 357.757 157.517 360.262 157.812 362.745L158.39 368.578C158.588 370.545 158.781 372.505 159.062 374.452C159.242 375.455 159.339 376.477 159.354 377.503C159.3 378.515 159.169 379.519 158.963 380.501C158.617 382.563 158.423 384.66 158.385 386.765C158.324 390.133 158.666 393.501 158.881 396.869C159.31 403.581 159.245 410.326 158.688 417.023C158.465 418.831 158.786 420.676 159.591 422.217C159.918 422.702 160.187 423.242 160.39 423.82C160.804 425.362 159.839 426.905 159.591 428.488C159.433 429.722 159.681 430.983 160.283 431.993C160.884 433.004 161.789 433.681 162.798 433.877C167.206 434.517 171.736 434.227 175.709 436.692C176.127 435.197 175.213 433.499 175.631 431.977C175.896 431.034 176.623 430.421 177.119 429.626C177.785 428.415 178.118 426.975 178.067 425.517C178.086 423.614 177.81 421.724 177.251 419.947C176.783 418.465 176.111 417.003 176.149 415.413C176.149 414.632 176.375 413.81 176.116 413.089C175.939 412.675 175.697 412.307 175.406 412.005C173.759 409.799 172.747 406.996 172.524 404.023C172.309 401.072 172.387 398.1 172.755 395.172C173.025 392.383 173.389 389.439 174.838 387.264C174.166 380.666 174.561 373.972 176.001 367.561C176.144 366.968 176.37 366.281 176.866 366.14C177.063 366.115 177.262 366.149 177.446 366.238C177.63 366.327 177.794 366.469 177.924 366.652C178.789 367.642 179.202 369.077 179.577 370.451C179.99 371.939 180.409 373.529 180.095 375.051C179.962 375.725 179.698 376.318 179.544 376.964C179.208 378.264 179.267 379.668 179.709 380.918C179.924 381.376 180.059 381.883 180.106 382.407C180.055 382.858 179.943 383.295 179.775 383.7C179.571 384.498 179.506 385.338 179.585 386.168C179.663 386.998 179.884 387.798 180.232 388.517C180.935 389.947 181.801 391.247 182.806 392.376C182.326 394.962 182.45 397.66 183.164 400.163C183.215 400.276 183.248 400.4 183.261 400.528C183.273 400.657 183.264 400.787 183.236 400.911C183.136 401.167 182.883 401.261 182.685 401.443C182.133 401.995 182.475 403.039 182.844 403.76C183.856 405.738 184.973 407.633 186.189 409.432C187.291 411.042 187.192 414.147 188.834 414.726C189.524 414.908 190.238 414.908 190.928 414.726C192.548 414.423 194.355 413.851 195.149 412.099C195.474 411.378 195.606 410.503 196.113 409.964C196.62 409.425 197.275 409.331 197.556 408.684C197.838 408.037 197.523 407.189 197.617 406.441C197.711 405.693 198.245 405.094 198.416 404.306C198.824 402.487 197.088 400.992 196.851 399.132C196.51 396.438 199.287 394.417 199.171 391.723C198.929 385.869 198.774 379.989 198.526 374.135C198.215 368.892 198.171 363.63 198.394 358.38C198.587 355.113 198.945 351.691 197.964 348.653C196.554 344.369 192.663 341.964 188.9 341.506C185.137 341.048 181.384 342.14 177.654 342.854C171.463 344.02 165.172 344.181 158.947 343.332Z" fill="#3F3D56"/>
<path d="M170.132 278.95C175.008 278.95 178.96 274.118 178.96 268.159C178.96 262.199 175.008 257.368 170.132 257.368C165.257 257.368 161.305 262.199 161.305 268.159C161.305 274.118 165.257 278.95 170.132 278.95Z" fill="#FBBEBE"/>
<path d="M166.54 280.964C166.24 281.817 165.736 282.54 165.093 283.036C164.451 283.533 163.701 283.78 162.942 283.746C162.622 285.362 163.388 286.992 164.264 288.265C166.083 290.853 168.434 292.801 171.075 293.908C173.715 295.015 176.549 295.242 179.285 294.563C180.349 294.33 181.359 293.815 182.244 293.055C183.436 291.838 184.237 290.143 184.503 288.272C184.756 286.414 184.829 284.526 184.718 282.648C184.749 282.277 184.662 281.905 184.475 281.61C184.255 281.402 183.983 281.292 183.704 281.3C181.841 281.098 179.896 281.011 178.26 279.893C176.623 278.774 175.461 276.248 176.249 274.174C176.122 274.497 172.904 274.652 172.48 274.719C171.152 274.948 169.824 275.204 168.501 275.501C167.866 275.543 167.238 275.688 166.633 275.932C165.834 276.437 166.132 276.188 166.319 277.104C166.6 278.505 167.014 279.509 166.54 280.964Z" fill="#FBBEBE"/>
<path d="M173.257 287.524C172.068 287.541 170.882 287.381 169.725 287.046C168.556 286.713 167.527 285.873 166.826 284.682C166.418 283.927 166.154 282.978 165.504 282.553C164.44 281.88 163.228 283.018 162.38 284.062C161.607 285.092 160.711 285.973 159.724 286.676C158.544 287.437 157.167 287.706 156.054 288.602C155.184 289.405 154.438 290.391 153.85 291.512L146.042 304.512C142.907 309.74 140.179 315.351 137.385 320.867C134.966 325.643 133.699 331.14 131.875 336.293C131.731 336.608 131.671 336.971 131.704 337.33C131.77 337.68 132.118 337.963 132.36 337.761C131.539 338.758 132.261 340.456 132.068 341.857C131.849 342.837 131.392 343.713 130.757 344.369C131.969 344.176 133.201 344.246 134.393 344.578C135.626 345.005 136.789 345.689 137.832 346.599C138.498 346.471 138.438 345.022 138.934 344.484C139.231 344.167 139.672 344.207 140.063 344.113C141.535 343.763 142.119 341.601 143.248 340.381C144.19 339.364 145.524 339.034 146.521 338.078C148.141 336.522 148.488 333.753 149.337 331.456C150.059 329.51 151.194 327.812 151.828 325.818C152.241 324.525 152.439 323.124 153.029 321.932C153.971 320.005 155.745 318.981 157.437 318.058C158.506 317.472 159.641 316.866 160.793 316.961C160.732 320.093 160.407 323.178 160.963 326.236C161.156 327.314 161.426 328.365 161.658 329.436C162.71 334.258 162.958 339.283 163.008 344.255C165.539 343.546 168.125 343.167 170.722 343.123C172.766 343.049 174.805 343.372 176.849 343.325C179.274 343.271 181.671 342.699 184.095 342.497C186.52 342.294 189.054 342.497 191.198 343.844C191.024 339.575 191.121 335.296 191.49 331.045L192.074 324.35C192.206 322.405 192.451 320.473 192.807 318.57C193.126 317.035 193.589 315.553 193.942 314.024C195.182 308.635 194.956 302.882 194.719 297.271C194.598 294.388 193.688 291.553 192.619 288.986C192.232 288.033 191.791 287.114 191.297 286.238C190.005 284.062 188.284 282.322 186.293 281.179C184.302 280.037 182.107 279.529 179.913 279.704C179.633 279.715 179.356 279.788 179.097 279.92C178.632 280.284 178.269 280.812 178.056 281.435C176.916 283.94 175.262 286.039 173.257 287.524Z" fill="#3F3D56"/>
<path d="M162.368 271.735C162.616 271.062 163.283 270.812 163.691 270.274C164.473 269.25 164.121 267.613 164.242 266.232C164.44 264.211 165.812 262.521 167.383 261.8C168.984 261.171 170.688 261.04 172.342 261.416C173.138 261.487 173.907 261.799 174.579 262.325C174.866 262.581 175.13 262.911 175.4 263.147C175.892 263.511 176.481 263.625 177.041 263.465C177.601 263.305 178.088 262.884 178.398 262.291C176.447 259.422 174.287 256.391 171.323 255.508C170.306 255.255 169.269 255.135 168.231 255.151C166.859 255.118 165.443 255.091 164.176 255.731C162.451 256.6 161.239 258.6 160.616 260.756C160.072 262.941 159.781 265.208 159.751 267.492C159.638 269.015 159.638 270.548 159.751 272.072C159.964 274.153 160.597 276.137 161.592 277.845C161.726 278.11 161.916 278.326 162.143 278.471C164.655 279.818 162.165 272.294 162.368 271.735Z" fill="#3F3D56"/>
<path d="M178.111 260.628C177.808 257.455 175.957 254.835 173.989 252.726C172.404 250.898 170.515 249.508 168.452 248.651C166.374 247.903 163.983 248.065 162.203 249.581C160.77 250.8 159.861 252.74 159.162 254.693C158.242 256.999 157.787 259.539 157.834 262.103C157.971 264.649 158.985 267.229 160.793 268.516C161.443 267.343 162.572 266.737 163.658 266.259C168.389 264.065 173.214 262.185 178.111 260.628Z" fill="#FED253"/>
<path opacity="0.1" d="M161.399 259.307C161.575 259.307 161.691 259.53 161.779 259.712C162.228 260.566 162.613 261.468 162.931 262.406C162.286 262.574 161.178 262.763 160.859 262.069C160.688 261.719 160.892 259.274 161.399 259.307Z" fill="black"/>
<path opacity="0.1" d="M173.956 257.785C173.824 257.94 173.67 257.623 173.67 257.394V254.781C173.666 254.708 173.68 254.636 173.708 254.572C173.731 254.54 173.759 254.514 173.79 254.496C173.822 254.477 173.856 254.466 173.89 254.464C174.337 254.404 174.706 254.868 174.992 255.313C175.427 256.033 175.805 256.803 176.122 257.61L173.791 257.522" fill="black"/>
<path d="M203.045 301.064C203.552 300.475 204.093 299.933 204.665 299.44C206.191 298.194 208.037 297.702 209.75 296.908C211.464 296.113 213.205 294.826 213.872 292.738C214.206 291.432 214.315 290.056 214.192 288.696C214.208 288.127 214.125 287.56 213.949 287.033C213.74 286.567 213.441 286.169 213.079 285.874C210.753 283.772 207.635 283.604 204.747 283.82C198.382 284.302 192.142 286.206 186.338 289.437C186.031 289.561 185.762 289.796 185.566 290.111C185.453 290.403 185.402 290.725 185.418 291.047C185.315 293.034 185.526 295.026 186.04 296.914C186.801 299.312 188.366 301.246 189.021 303.691C189.319 304.789 189.418 305.954 189.677 307.059C189.889 308.2 190.441 309.203 191.225 309.874C193.402 311.464 195.457 309.329 196.967 307.672L203.045 301.064Z" fill="#3F3D56"/>
<path d="M174.54 310.393L171.747 302.943C171.337 301.911 170.984 300.846 170.689 299.757C170.369 298.457 170.215 297.11 169.917 295.803C168.937 291.451 166.463 287.828 165.256 283.564C165.18 283.179 165.024 282.824 164.804 282.533C164.628 282.381 164.426 282.278 164.214 282.231C164.002 282.185 163.784 282.196 163.575 282.264C161.889 282.621 160.572 284.19 159.029 285.079C158.313 285.483 157.542 285.753 156.825 286.218C156.467 286.425 156.15 286.724 155.895 287.095C155.64 287.466 155.454 287.899 155.349 288.366C155.178 289.397 155.596 290.387 155.949 291.391C157.448 295.527 157.79 300.148 157.856 304.674C157.905 307.719 157.779 310.986 156.307 313.431C153.481 318.146 155.288 325.071 156.346 330.776C156.473 331.45 156.621 332.177 156.71 332.891C156.803 333.785 156.845 334.685 156.836 335.585C156.836 338.61 156.699 341.729 155.663 344.47C156.685 345.135 157.813 345.526 158.969 345.615C162.168 346.114 165.381 346.464 168.606 346.666C169.617 346.782 170.635 346.719 171.631 346.478C172.813 346.087 173.856 345.226 174.593 344.03C175.33 342.835 175.721 341.373 175.703 339.876C175.879 341.742 176.205 343.77 177.312 345.063C178.42 346.356 180.034 346.552 181.538 346.653C185.784 346.928 190.041 346.781 194.267 346.215C194.537 346.2 194.802 346.125 195.049 345.993C195.865 345.494 195.909 344.12 195.843 343.015C195.722 340.947 195.595 338.879 195.391 336.825C195.218 335.515 195.13 334.191 195.126 332.864C195.211 331.499 195.395 330.147 195.678 328.823C196.416 324.619 197 320.329 196.752 316.024C196.654 314.976 196.619 313.92 196.647 312.865C196.791 310.487 197.815 308.224 197.623 305.86C197.072 298.908 196.625 291.775 195.038 285.066C194.752 283.867 194.388 282.58 193.534 281.893C192.432 280.991 190.884 281.462 189.622 280.889C189.03 280.553 188.467 280.144 187.941 279.67C186.799 278.797 185.49 278.305 184.145 278.242C183.131 278.195 182.001 278.471 181.39 279.468C181.106 280.029 180.919 280.655 180.839 281.307C180.04 285.416 179.103 289.478 178.166 293.54L177.268 297.433L174.86 307.887C174.623 308.999 174.783 309.342 174.54 310.393Z" fill="#6C63FF"/>
<path d="M188.63 269.607L241.93 338.078V343.884H218.165L178.111 279.98" fill="#F1C0C0"/>
<path opacity="0.1" d="M188.63 269.607L241.93 338.078V343.884H218.165L178.111 279.98" fill="black"/>
<path opacity="0.1" d="M178.96 279.078L179.13 279.152L218.506 338.078H241.93V343.884H218.165L178.111 279.98L178.96 279.078Z" fill="black"/>
<path d="M185.092 280.519C183.164 281.55 181.02 282.87 180.442 285.349C180.328 285.784 180.303 286.246 180.37 286.696C180.511 287.224 180.78 287.688 181.141 288.026C181.502 288.364 181.938 288.56 182.392 288.589C183.3 288.616 184.202 288.414 185.043 287.996L196.421 283.402C196.73 283.281 197.083 283.099 197.16 282.728C197.18 282.495 197.141 282.261 197.05 282.055C196.697 281.004 196.35 278.855 195.611 278.121C195.005 277.528 193.804 277.737 193.071 277.751C190.25 277.777 187.6 279.172 185.092 280.519Z" fill="#6C63FF"/>
<path d="M195.237 283.948C197.154 283.941 199.06 284.302 200.885 285.019C202.718 285.746 204.342 287.102 205.563 288.926C205.918 289.435 206.171 290.04 206.301 290.69C206.411 291.364 208.208 291.768 207.811 292.226C209.018 291.99 208.731 292.684 209.954 292.671C211.178 292.657 212.5 292.273 213.233 291.081C213.742 290.102 213.969 288.942 213.878 287.787C213.894 286.987 213.77 286.193 213.514 285.456C212.963 284.042 211.696 283.281 210.527 282.627L200.686 277.124C200.115 276.753 199.503 276.487 198.868 276.336C198.334 276.274 197.796 276.29 197.264 276.383L192.807 277.01C193.782 277.781 194.575 278.849 195.11 280.109C195.644 281.37 195.9 282.779 195.854 284.197" fill="#3F3D56"/>
</g>
<defs>
<clipPath id="clip0">
<rect width="649" height="488" fill="white"/>
</clipPath>
</defs>
</svg>
